<svg width="232" height="129" viewBox="0 0 232 129" fill="none" xmlns="http://www.w3.org/2000/svg">
<path d="M21.3969 120V7.81999H62.1609C74.3795 7.81999 84.5969 10.348 92.8129 15.404C101.029 20.3547 107.191 27.096 111.299 35.628C115.407 44.0547 117.461 53.4293 117.461 63.752C117.461 75.128 115.196 85.0293 110.667 93.456C106.138 101.883 99.7122 108.413 91.3909 113.048C83.0695 117.683 73.3262 120 62.1609 120H21.3969ZM95.4989 63.752C95.4989 56.484 94.1822 50.1113 91.5489 44.634C88.9155 39.0513 85.1236 34.7327 80.1729 31.678C75.2222 28.518 69.2182 26.938 62.1609 26.938H43.2009V100.882H62.1609C69.3235 100.882 75.3802 99.302 80.3309 96.142C85.2815 92.8767 89.0209 88.4527 91.5489 82.87C94.1822 77.182 95.4989 70.8093 95.4989 63.752ZM216.972 91.086C216.972 97.406 215.34 102.725 212.074 107.044C208.809 111.257 204.385 114.47 198.802 116.682C193.325 118.894 187.321 120 180.79 120H126.596V7.81999H186.636C191.903 7.81999 196.432 9.24199 200.224 12.086C204.016 14.8247 206.966 18.406 209.072 22.83C211.179 27.254 212.232 31.7833 212.232 36.418C212.232 41.8953 210.863 47.0567 208.124 51.902C205.386 56.642 201.383 60.1707 196.116 62.488C202.542 64.384 207.598 67.8073 211.284 72.758C215.076 77.7087 216.972 83.818 216.972 91.086ZM148.4 26.464V54.746H177.472C181.054 54.746 184.161 53.482 186.794 50.954C189.428 48.426 190.744 44.95 190.744 40.526C190.744 36.3127 189.533 32.942 187.11 30.414C184.793 27.7807 181.896 26.464 178.42 26.464H148.4ZM195.01 86.978C195.01 82.87 193.746 79.3413 191.218 76.392C188.69 73.4427 185.583 71.968 181.896 71.968H148.4V101.514H180.79C184.793 101.514 188.164 100.092 190.902 97.248C193.641 94.404 195.01 90.9807 195.01 86.978Z" fill="url(#paint0_linear)"/>
<defs>
<linearGradient id="paint0_linear" x1="214" y1="21.5" x2="114.32" y2="161.815" gradientUnits="userSpaceOnUse">
<stop stop-color="#E724A0"/>
<stop offset="1" stop-color="#8025F2"/>
</linearGradient>
</defs>
</svg>
