<svg width="425" height="38" viewBox="0 0 425 38" fill="none" xmlns="http://www.w3.org/2000/svg">
<path d="M21.5781 22.0547V23.0547H22.5781V22.0547H21.5781ZM8.07812 22.0547V21.0547H7.07812V22.0547H8.07812ZM8.07812 36V37H9.07812V36H8.07812ZM1.04688 36H0.046875V37H1.04688V36ZM1.04688 1.875V0.875H0.046875V1.875H1.04688ZM23.2656 1.875H24.2656V0.875H23.2656V1.875ZM23.2656 7.57031V8.57031H24.2656V7.57031H23.2656ZM8.07812 7.57031V6.57031H7.07812V7.57031H8.07812ZM8.07812 16.3828H7.07812V17.3828H8.07812V16.3828ZM21.5781 16.3828H22.5781V15.3828H21.5781V16.3828ZM21.5781 21.0547H8.07812V23.0547H21.5781V21.0547ZM7.07812 22.0547V36H9.07812V22.0547H7.07812ZM8.07812 35H1.04688V37H8.07812V35ZM2.04688 36V1.875H0.046875V36H2.04688ZM1.04688 2.875H23.2656V0.875H1.04688V2.875ZM22.2656 1.875V7.57031H24.2656V1.875H22.2656ZM23.2656 6.57031H8.07812V8.57031H23.2656V6.57031ZM7.07812 7.57031V16.3828H9.07812V7.57031H7.07812ZM8.07812 17.3828H21.5781V15.3828H8.07812V17.3828ZM20.5781 16.3828V22.0547H22.5781V16.3828H20.5781ZM47.875 21.2109V22.2109H48.875V21.2109H47.875ZM34.375 21.2109V20.2109H33.375V21.2109H34.375ZM34.375 30.3516H33.375V31.3516H34.375V30.3516ZM50.2188 30.3516H51.2188V29.3516H50.2188V30.3516ZM50.2188 36V37H51.2188V36H50.2188ZM27.3438 36H26.3438V37H27.3438V36ZM27.3438 1.875V0.875H26.3438V1.875H27.3438ZM50.1719 1.875H51.1719V0.875H50.1719V1.875ZM50.1719 7.57031V8.57031H51.1719V7.57031H50.1719ZM34.375 7.57031V6.57031H33.375V7.57031H34.375ZM34.375 15.7031H33.375V16.7031H34.375V15.7031ZM47.875 15.7031H48.875V14.7031H47.875V15.7031ZM47.875 20.2109H34.375V22.2109H47.875V20.2109ZM33.375 21.2109V30.3516H35.375V21.2109H33.375ZM34.375 31.3516H50.2188V29.3516H34.375V31.3516ZM49.2188 30.3516V36H51.2188V30.3516H49.2188ZM50.2188 35H27.3438V37H50.2188V35ZM28.3438 36V1.875H26.3438V36H28.3438ZM27.3438 2.875H50.1719V0.875H27.3438V2.875ZM49.1719 1.875V7.57031H51.1719V1.875H49.1719ZM50.1719 6.57031H34.375V8.57031H50.1719V6.57031ZM33.375 7.57031V15.7031H35.375V7.57031H33.375ZM34.375 16.7031H47.875V14.7031H34.375V16.7031ZM46.875 15.7031V21.2109H48.875V15.7031H46.875ZM73.6094 28.9688L74.5571 28.6497L74.3279 27.9688H73.6094V28.9688ZM61.2812 28.9688V27.9688H60.5605L60.3326 28.6525L61.2812 28.9688ZM58.9375 36V37H59.6583L59.8862 36.3162L58.9375 36ZM51.4609 36L50.5238 35.6511L50.0216 37H51.4609V36ZM64.1641 1.875V0.875H63.4693L63.2269 1.52613L64.1641 1.875ZM70.6797 1.875L71.6162 1.52444L71.3731 0.875H70.6797V1.875ZM83.4531 36V37H84.8952L84.3897 35.6494L83.4531 36ZM75.9766 36L75.0288 36.3191L75.2581 37H75.9766V36ZM63.1797 23.2734L62.2307 22.9583L61.7939 24.2734H63.1797V23.2734ZM71.7109 23.2734V24.2734H73.1016L72.6589 22.9551L71.7109 23.2734ZM67.4219 10.5L68.3699 10.1817L67.4167 7.34293L66.4728 10.1848L67.4219 10.5ZM73.6094 27.9688H61.2812V29.9688H73.6094V27.9688ZM60.3326 28.6525L57.9888 35.6838L59.8862 36.3162L62.2299 29.285L60.3326 28.6525ZM58.9375 35H51.4609V37H58.9375V35ZM52.3981 36.3489L65.1012 2.22387L63.2269 1.52613L50.5238 35.6511L52.3981 36.3489ZM64.1641 2.875H70.6797V0.875H64.1641V2.875ZM69.7431 2.22556L82.5166 36.3506L84.3897 35.6494L71.6162 1.52444L69.7431 2.22556ZM83.4531 35H75.9766V37H83.4531V35ZM76.9243 35.6809L74.5571 28.6497L72.6616 29.2878L75.0288 36.3191L76.9243 35.6809ZM63.1797 24.2734H71.7109V22.2734H63.1797V24.2734ZM72.6589 22.9551L68.3699 10.1817L66.4739 10.8183L70.763 23.5918L72.6589 22.9551ZM66.4728 10.1848L62.2307 22.9583L64.1287 23.5886L68.3709 10.8152L66.4728 10.1848ZM109.516 7.57031V8.57031H110.516V7.57031H109.516ZM99.0625 7.57031V6.57031H98.0625V7.57031H99.0625ZM99.0625 36V37H100.062V36H99.0625ZM92.0312 36H91.0312V37H92.0312V36ZM92.0312 7.57031H93.0312V6.57031H92.0312V7.57031ZM81.7188 7.57031H80.7188V8.57031H81.7188V7.57031ZM81.7188 1.875V0.875H80.7188V1.875H81.7188ZM109.516 1.875H110.516V0.875H109.516V1.875ZM109.516 6.57031H99.0625V8.57031H109.516V6.57031ZM98.0625 7.57031V36H100.062V7.57031H98.0625ZM99.0625 35H92.0312V37H99.0625V35ZM93.0312 36V7.57031H91.0312V36H93.0312ZM92.0312 6.57031H81.7188V8.57031H92.0312V6.57031ZM82.7188 7.57031V1.875H80.7188V7.57031H82.7188ZM81.7188 2.875H109.516V0.875H81.7188V2.875ZM108.516 1.875V7.57031H110.516V1.875H108.516ZM139.375 1.875H140.375V0.875H139.375V1.875ZM135.859 33.2109L135.18 32.4774L135.177 32.4797L135.859 33.2109ZM113.219 24.6094L112.219 24.6094L112.219 24.6221L113.219 24.6094ZM113.219 1.875V0.875H112.219V1.875H113.219ZM120.25 1.875H121.25V0.875H120.25V1.875ZM121.844 29.2969L121.147 30.0145L121.153 30.0197L121.158 30.0248L121.844 29.2969ZM132.32 24.5859L133.32 24.601L133.32 24.5935V24.5859H132.32ZM132.32 1.875V0.875H131.32V1.875H132.32ZM138.375 1.875V24.3516H140.375V1.875H138.375ZM138.375 24.3516C138.375 27.8588 137.284 30.5271 135.18 32.4774L136.539 33.9444C139.122 31.551 140.375 28.3131 140.375 24.3516H138.375ZM135.177 32.4797C133.081 34.4357 130.162 35.4688 126.297 35.4688V37.4688C130.526 37.4688 133.982 36.3299 136.542 33.9422L135.177 32.4797ZM126.297 35.4688C122.492 35.4688 119.589 34.4653 117.474 32.5614L116.136 34.048C118.708 36.3628 122.133 37.4688 126.297 37.4688V35.4688ZM117.474 32.5614C115.373 30.6707 114.263 28.0568 114.219 24.5967L112.219 24.6221C112.269 28.5369 113.549 31.7199 116.136 34.048L117.474 32.5614ZM114.219 24.6094V1.875H112.219V24.6094H114.219ZM113.219 2.875H120.25V0.875H113.219V2.875ZM119.25 1.875V24.3984H121.25V1.875H119.25ZM119.25 24.3984C119.25 26.7669 119.811 28.7174 121.147 30.0145L122.54 28.5793C121.752 27.8138 121.25 26.4987 121.25 24.3984H119.25ZM121.158 30.0248C122.469 31.2596 124.225 31.8203 126.297 31.8203V29.8203C124.588 29.8203 123.375 29.3654 122.529 28.569L121.158 30.0248ZM126.297 31.8203C128.442 31.8203 130.233 31.2539 131.487 29.9566C132.732 28.6682 133.287 26.8223 133.32 24.601L131.32 24.5709C131.291 26.5058 130.811 27.7771 130.048 28.5669C129.294 29.3477 128.105 29.8203 126.297 29.8203V31.8203ZM133.32 24.5859V1.875H131.32V24.5859H133.32ZM132.32 2.875H139.375V0.875H132.32V2.875ZM157.773 23.5078L158.663 23.0519L158.385 22.5078H157.773V23.5078ZM152.172 23.5078V22.5078H151.172V23.5078H152.172ZM152.172 36V37H153.172V36H152.172ZM145.141 36H144.141V37H145.141V36ZM145.141 1.875V0.875H144.141V1.875H145.141ZM168.906 18.0234L168.068 17.4784L168.066 17.4805L168.906 18.0234ZM164.336 21.7266L163.925 20.8148L162.953 21.2525L163.452 22.1945L164.336 21.7266ZM171.719 35.6719H172.719V35.4235L172.603 35.204L171.719 35.6719ZM171.719 36V37H172.719V36H171.719ZM164.172 36L163.282 36.4559L163.561 37H164.172V36ZM152.172 17.8125H151.172V18.8125H152.172V17.8125ZM161.945 16.4766L162.622 17.2128L162.628 17.2068L161.945 16.4766ZM162.016 8.95312L161.302 9.65419L161.309 9.66023L162.016 8.95312ZM152.172 7.57031V6.57031H151.172V7.57031H152.172ZM157.773 22.5078H152.172V24.5078H157.773V22.5078ZM151.172 23.5078V36H153.172V23.5078H151.172ZM152.172 35H145.141V37H152.172V35ZM146.141 36V1.875H144.141V36H146.141ZM145.141 2.875H157.82V0.875H145.141V2.875ZM157.82 2.875C161.716 2.875 164.568 3.7444 166.514 5.34304L167.783 3.79759C165.354 1.80248 161.987 0.875 157.82 0.875V2.875ZM166.514 5.34304C168.432 6.91858 169.43 9.15228 169.43 12.1875H171.43C171.43 8.66022 170.24 5.81579 167.783 3.79759L166.514 5.34304ZM169.43 12.1875C169.43 14.3704 168.954 16.1143 168.068 17.4784L169.745 18.5684C170.889 16.8075 171.43 14.6609 171.43 12.1875H169.43ZM168.066 17.4805C167.192 18.8334 165.835 19.9546 163.925 20.8148L164.747 22.6384C166.93 21.6548 168.621 20.3072 169.746 18.5663L168.066 17.4805ZM163.452 22.1945L170.835 36.1398L172.603 35.204L165.22 21.2587L163.452 22.1945ZM170.719 35.6719V36H172.719V35.6719H170.719ZM171.719 35H164.172V37H171.719V35ZM165.062 35.5441L158.663 23.0519L156.883 23.9637L163.282 36.4559L165.062 35.5441ZM152.172 18.8125H157.844V16.8125H152.172V18.8125ZM157.844 18.8125C159.773 18.8125 161.413 18.324 162.622 17.2127L161.269 15.7404C160.54 16.4104 159.446 16.8125 157.844 16.8125V18.8125ZM162.628 17.2068C163.837 16.0758 164.398 14.548 164.398 12.75H162.398C162.398 14.1083 161.991 15.0648 161.262 15.7463L162.628 17.2068ZM164.398 12.75C164.398 10.9414 163.874 9.39741 162.723 8.24602L161.309 9.66023C162.001 10.3526 162.398 11.3399 162.398 12.75H164.398ZM162.729 8.25209C161.562 7.06562 159.855 6.57031 157.82 6.57031V8.57031C159.567 8.57031 160.656 8.99688 161.303 9.65416L162.729 8.25209ZM157.82 6.57031H152.172V8.57031H157.82V6.57031ZM151.172 7.57031V17.8125H153.172V7.57031H151.172ZM196.328 21.2109V22.2109H197.328V21.2109H196.328ZM182.828 21.2109V20.2109H181.828V21.2109H182.828ZM182.828 30.3516H181.828V31.3516H182.828V30.3516ZM198.672 30.3516H199.672V29.3516H198.672V30.3516ZM198.672 36V37H199.672V36H198.672ZM175.797 36H174.797V37H175.797V36ZM175.797 1.875V0.875H174.797V1.875H175.797ZM198.625 1.875H199.625V0.875H198.625V1.875ZM198.625 7.57031V8.57031H199.625V7.57031H198.625ZM182.828 7.57031V6.57031H181.828V7.57031H182.828ZM182.828 15.7031H181.828V16.7031H182.828V15.7031ZM196.328 15.7031H197.328V14.7031H196.328V15.7031ZM196.328 20.2109H182.828V22.2109H196.328V20.2109ZM181.828 21.2109V30.3516H183.828V21.2109H181.828ZM182.828 31.3516H198.672V29.3516H182.828V31.3516ZM197.672 30.3516V36H199.672V30.3516H197.672ZM198.672 35H175.797V37H198.672V35ZM176.797 36V1.875H174.797V36H176.797ZM175.797 2.875H198.625V0.875H175.797V2.875ZM197.625 1.875V7.57031H199.625V1.875H197.625ZM198.625 6.57031H182.828V8.57031H198.625V6.57031ZM181.828 7.57031V15.7031H183.828V7.57031H181.828ZM182.828 16.7031H196.328V14.7031H182.828V16.7031ZM195.328 15.7031V21.2109H197.328V15.7031H195.328ZM202.797 36H201.797V37H202.797V36ZM202.797 1.875V0.875H201.797V1.875H202.797ZM221.336 3.91406L220.837 4.78056L220.844 4.78441L221.336 3.91406ZM226.891 9.67969L226.008 10.1488L226.009 10.1511L226.891 9.67969ZM226.914 28.1953L226.031 27.7259L226.029 27.7303L226.914 28.1953ZM213.367 36L213.367 37L213.372 37L213.367 36ZM209.828 7.57031V6.57031H208.828V7.57031H209.828ZM209.828 30.3516H208.828V31.3516H209.828V30.3516ZM221.758 19.9453L222.758 19.9547V19.9453H221.758ZM219.602 10.2656L218.821 10.8903L218.823 10.8936L219.602 10.2656ZM203.797 36V1.875H201.797V36H203.797ZM202.797 2.875H213.297V0.875H202.797V2.875ZM213.297 2.875C216.14 2.875 218.644 3.51735 220.837 4.78053L221.835 3.04759C219.309 1.59203 216.454 0.875 213.297 0.875V2.875ZM220.844 4.78441C223.046 6.03074 224.765 7.81042 226.008 10.1488L227.774 9.21053C226.36 6.54895 224.376 4.48489 221.828 3.04371L220.844 4.78441ZM226.009 10.1511C227.25 12.473 227.883 15.1357 227.883 18.1641H229.883C229.883 14.8487 229.188 11.8551 227.773 9.20824L226.009 10.1511ZM227.883 18.1641V19.7344H229.883V18.1641H227.883ZM227.883 19.7344C227.883 22.7648 227.257 25.4201 226.031 27.7259L227.797 28.6647C229.196 26.033 229.883 23.0477 229.883 19.7344H227.883ZM226.029 27.7303C224.819 30.0339 223.116 31.8067 220.909 33.0696L221.903 34.8054C224.447 33.3496 226.416 31.2942 227.799 28.6604L226.029 27.7303ZM220.909 33.0696C218.698 34.3357 216.19 34.9852 213.362 35L213.372 37C216.513 36.9835 219.365 36.2581 221.903 34.8054L220.909 33.0696ZM213.367 35H202.797V37H213.367V35ZM208.828 7.57031V30.3516H210.828V7.57031H208.828ZM209.828 31.3516H213.227V29.3516H209.828V31.3516ZM213.227 31.3516C216.215 31.3516 218.629 30.3622 220.309 28.2851L218.754 27.0274C217.527 28.5441 215.738 29.3516 213.227 29.3516V31.3516ZM220.309 28.2851C221.955 26.2493 222.725 23.4262 222.758 19.9547L220.758 19.936C220.728 23.1519 220.014 25.4694 218.754 27.0274L220.309 28.2851ZM222.758 19.9453V18.1406H220.758V19.9453H222.758ZM222.758 18.1406C222.758 14.5559 222.018 11.668 220.38 9.63761L218.823 10.8936C220.06 12.4257 220.758 14.7879 220.758 18.1406H222.758ZM220.382 9.64093C218.716 7.55832 216.298 6.57031 213.297 6.57031V8.57031C215.827 8.57031 217.612 9.37918 218.821 10.8903L220.382 9.64093ZM213.297 6.57031H209.828V8.57031H213.297V6.57031ZM270.25 7.57031V8.57031H271.25V7.57031H270.25ZM259.797 7.57031V6.57031H258.797V7.57031H259.797ZM259.797 36V37H260.797V36H259.797ZM252.766 36H251.766V37H252.766V36ZM252.766 7.57031H253.766V6.57031H252.766V7.57031ZM242.453 7.57031H241.453V8.57031H242.453V7.57031ZM242.453 1.875V0.875H241.453V1.875H242.453ZM270.25 1.875H271.25V0.875H270.25V1.875ZM270.25 6.57031H259.797V8.57031H270.25V6.57031ZM258.797 7.57031V36H260.797V7.57031H258.797ZM259.797 35H252.766V37H259.797V35ZM253.766 36V7.57031H251.766V36H253.766ZM252.766 6.57031H242.453V8.57031H252.766V6.57031ZM243.453 7.57031V1.875H241.453V7.57031H243.453ZM242.453 2.875H270.25V0.875H242.453V2.875ZM269.25 1.875V7.57031H271.25V1.875H269.25ZM286.914 23.5078L287.804 23.0519L287.525 22.5078H286.914V23.5078ZM281.312 23.5078V22.5078H280.312V23.5078H281.312ZM281.312 36V37H282.312V36H281.312ZM274.281 36H273.281V37H274.281V36ZM274.281 1.875V0.875H273.281V1.875H274.281ZM298.047 18.0234L297.208 17.4784L297.207 17.4805L298.047 18.0234ZM293.477 21.7266L293.066 20.8148L292.094 21.2525L292.593 22.1945L293.477 21.7266ZM300.859 35.6719H301.859V35.4235L301.743 35.204L300.859 35.6719ZM300.859 36V37H301.859V36H300.859ZM293.312 36L292.422 36.4559L292.701 37H293.312V36ZM281.312 17.8125H280.312V18.8125H281.312V17.8125ZM291.086 16.4766L291.763 17.2128L291.769 17.2068L291.086 16.4766ZM291.156 8.95312L290.443 9.65419L290.449 9.66023L291.156 8.95312ZM281.312 7.57031V6.57031H280.312V7.57031H281.312ZM286.914 22.5078H281.312V24.5078H286.914V22.5078ZM280.312 23.5078V36H282.312V23.5078H280.312ZM281.312 35H274.281V37H281.312V35ZM275.281 36V1.875H273.281V36H275.281ZM274.281 2.875H286.961V0.875H274.281V2.875ZM286.961 2.875C290.857 2.875 293.708 3.7444 295.654 5.34304L296.924 3.79759C294.495 1.80248 291.127 0.875 286.961 0.875V2.875ZM295.654 5.34304C297.572 6.91858 298.57 9.15228 298.57 12.1875H300.57C300.57 8.66022 299.381 5.81579 296.924 3.79759L295.654 5.34304ZM298.57 12.1875C298.57 14.3704 298.095 16.1143 297.208 17.4784L298.885 18.5684C300.03 16.8075 300.57 14.6609 300.57 12.1875H298.57ZM297.207 17.4805C296.332 18.8334 294.976 19.9546 293.066 20.8148L293.887 22.6384C296.071 21.6548 297.761 20.3072 298.887 18.5663L297.207 17.4805ZM292.593 22.1945L299.976 36.1398L301.743 35.204L294.36 21.2587L292.593 22.1945ZM299.859 35.6719V36H301.859V35.6719H299.859ZM300.859 35H293.312V37H300.859V35ZM294.203 35.5441L287.804 23.0519L286.024 23.9637L292.422 36.4559L294.203 35.5441ZM281.312 18.8125H286.984V16.8125H281.312V18.8125ZM286.984 18.8125C288.913 18.8125 290.554 18.324 291.763 17.2127L290.409 15.7404C289.68 16.4104 288.587 16.8125 286.984 16.8125V18.8125ZM291.769 17.2068C292.978 16.0758 293.539 14.548 293.539 12.75H291.539C291.539 14.1083 291.131 15.0648 290.403 15.7463L291.769 17.2068ZM293.539 12.75C293.539 10.9414 293.015 9.39741 291.863 8.24602L290.449 9.66023C291.141 10.3526 291.539 11.3399 291.539 12.75H293.539ZM291.869 8.25209C290.703 7.06562 288.996 6.57031 286.961 6.57031V8.57031C288.708 8.57031 289.797 8.99688 290.443 9.65416L291.869 8.25209ZM286.961 6.57031H281.312V8.57031H286.961V6.57031ZM280.312 7.57031V17.8125H282.312V7.57031H280.312ZM324.203 28.9688L325.151 28.6497L324.922 27.9688H324.203V28.9688ZM311.875 28.9688V27.9688H311.154L310.926 28.6525L311.875 28.9688ZM309.531 36V37H310.252L310.48 36.3162L309.531 36ZM302.055 36L301.118 35.6511L300.615 37H302.055V36ZM314.758 1.875V0.875H314.063L313.821 1.52613L314.758 1.875ZM321.273 1.875L322.21 1.52444L321.967 0.875H321.273V1.875ZM334.047 36V37H335.489L334.983 35.6494L334.047 36ZM326.57 36L325.623 36.3191L325.852 37H326.57V36ZM313.773 23.2734L312.824 22.9583L312.388 24.2734H313.773V23.2734ZM322.305 23.2734V24.2734H323.695L323.253 22.9551L322.305 23.2734ZM318.016 10.5L318.964 10.1817L318.01 7.34293L317.067 10.1848L318.016 10.5ZM324.203 27.9688H311.875V29.9688H324.203V27.9688ZM310.926 28.6525L308.583 35.6838L310.48 36.3162L312.824 29.285L310.926 28.6525ZM309.531 35H302.055V37H309.531V35ZM302.992 36.3489L315.695 2.22387L313.821 1.52613L301.118 35.6511L302.992 36.3489ZM314.758 2.875H321.273V0.875H314.758V2.875ZM320.337 2.22556L333.11 36.3506L334.983 35.6494L322.21 1.52444L320.337 2.22556ZM334.047 35H326.57V37H334.047V35ZM327.518 35.6809L325.151 28.6497L323.255 29.2878L325.623 36.3191L327.518 35.6809ZM313.773 24.2734H322.305V22.2734H313.773V24.2734ZM323.253 22.9551L318.964 10.1817L317.068 10.8183L321.357 23.5918L323.253 22.9551ZM317.067 10.1848L312.824 22.9583L314.722 23.5886L318.965 10.8152L317.067 10.1848ZM363.508 24.6328L364.505 24.705L364.583 23.6328H363.508V24.6328ZM359.43 33.3047L358.778 32.5465L358.775 32.5485L359.43 33.3047ZM339.438 32.0625L338.674 32.7086L338.678 32.713L339.438 32.0625ZM342.367 3.42188L342.894 4.27161L342.896 4.27056L342.367 3.42188ZM363.555 13.4531V14.4531H364.658L364.55 13.3552L363.555 13.4531ZM356.523 13.4531L355.526 13.5309L355.598 14.4531H356.523V13.4531ZM354.672 8.67188L353.981 9.39499L353.987 9.40025L353.992 9.40544L354.672 8.67188ZM344.594 9.70312L343.772 9.13273L343.771 9.13431L344.594 9.70312ZM342.812 17.5078L341.812 17.499V17.5078H342.812ZM344.477 28.1719L343.639 28.7177L343.642 28.723L344.477 28.1719ZM354.625 29.25L355.305 29.9836L355.305 29.9832L354.625 29.25ZM356.477 24.6328V23.6328H355.549L355.479 24.5578L356.477 24.6328ZM362.51 24.5607C362.261 28.0069 361.001 30.6351 358.778 32.5465L360.082 34.0629C362.765 31.7555 364.223 28.6025 364.505 24.705L362.51 24.5607ZM358.775 32.5485C356.56 34.4654 353.593 35.4688 349.773 35.4688V37.4688C353.954 37.4688 357.424 36.3628 360.084 34.0609L358.775 32.5485ZM349.773 35.4688C345.648 35.4688 342.496 34.0971 340.197 31.412L338.678 32.713C341.41 35.9029 345.149 37.4688 349.773 37.4688V35.4688ZM340.201 31.4164C337.898 28.6959 336.688 24.9044 336.688 19.9219H334.688C334.688 25.2206 335.977 29.5229 338.674 32.7086L340.201 31.4164ZM336.688 19.9219V17.8359H334.688V19.9219H336.688ZM336.688 17.8359C336.688 14.6723 337.245 11.9295 338.33 9.58384L336.514 8.74428C335.287 11.3986 334.688 14.4371 334.688 17.8359H336.688ZM338.33 9.58384C339.412 7.244 340.935 5.48709 342.894 4.27161L341.84 2.57214C339.518 4.01291 337.745 6.08413 336.514 8.74428L338.33 9.58384ZM342.896 4.27056C344.875 3.03718 347.187 2.40625 349.867 2.40625V0.40625C346.859 0.40625 344.172 1.11907 341.838 2.57319L342.896 4.27056ZM349.867 2.40625C353.62 2.40625 356.539 3.40739 358.724 5.32228L360.042 3.81834C357.414 1.51448 353.989 0.40625 349.867 0.40625V2.40625ZM358.724 5.32228C360.902 7.23221 362.204 9.93844 362.559 13.551L364.55 13.3552C364.155 9.34281 362.676 6.12717 360.042 3.81834L358.724 5.32228ZM363.555 12.4531H356.523V14.4531H363.555V12.4531ZM357.52 13.3753C357.339 11.0494 356.675 9.16435 355.351 7.93831L353.992 9.40544C354.794 10.1481 355.364 11.4506 355.526 13.5309L357.52 13.3753ZM355.363 7.94876C354.056 6.70074 352.157 6.17188 349.867 6.17188V8.17188C351.89 8.17188 353.194 8.64301 353.981 9.39499L355.363 7.94876ZM349.867 6.17188C347.249 6.17188 345.16 7.13503 343.772 9.13273L345.415 10.2735C346.372 8.89622 347.798 8.17188 349.867 8.17188V6.17188ZM343.771 9.13431C342.445 11.0528 341.844 13.898 341.813 17.499L343.812 17.5167C343.843 14.0551 344.43 11.6972 345.416 10.2719L343.771 9.13431ZM341.812 17.5078V20.0859H343.812V17.5078H341.812ZM341.812 20.0859C341.812 23.831 342.368 26.7668 343.639 28.7177L345.314 27.6261C344.366 26.1707 343.812 23.7159 343.812 20.0859H341.812ZM343.642 28.723C344.988 30.7598 347.101 31.7266 349.773 31.7266V29.7266C347.634 29.7266 346.216 28.9902 345.311 27.6207L343.642 28.723ZM349.773 31.7266C352.074 31.7266 353.983 31.2077 355.305 29.9836L353.945 28.5164C353.142 29.2611 351.816 29.7266 349.773 29.7266V31.7266ZM355.305 29.9832C356.633 28.7515 357.306 26.9326 357.474 24.7078L355.479 24.5578C355.334 26.4893 354.773 27.7485 353.945 28.5168L355.305 29.9832ZM356.477 25.6328H363.508V23.6328H356.477V25.6328ZM378.812 22.3125L379.655 21.7732L378.958 20.6859L378.08 21.632L378.812 22.3125ZM375.156 26.25L374.423 25.5695L374.156 25.8573V26.25H375.156ZM375.156 36V37H376.156V36H375.156ZM368.125 36H367.125V37H368.125V36ZM368.125 1.875V0.875H367.125V1.875H368.125ZM375.156 1.875H376.156V0.875H375.156V1.875ZM375.156 17.3438H374.156V20.4121L375.964 17.933L375.156 17.3438ZM378.25 13.1016L377.459 12.4892L377.451 12.5007L377.442 12.5123L378.25 13.1016ZM386.945 1.875V0.875H386.455L386.155 1.26266L386.945 1.875ZM395.594 1.875L396.375 2.49925L397.673 0.875H395.594V1.875ZM383.477 17.0391L382.695 16.4148L382.242 16.9819L382.641 17.5885L383.477 17.0391ZM395.945 36V37H397.8L396.781 35.4506L395.945 36ZM387.578 36L386.736 36.5393L387.031 37H387.578V36ZM378.08 21.632L374.423 25.5695L375.889 26.9305L379.545 22.993L378.08 21.632ZM374.156 26.25V36H376.156V26.25H374.156ZM375.156 35H368.125V37H375.156V35ZM369.125 36V1.875H367.125V36H369.125ZM368.125 2.875H375.156V0.875H368.125V2.875ZM374.156 1.875V17.3438H376.156V1.875H374.156ZM375.964 17.933L379.058 13.6908L377.442 12.5123L374.348 16.7545L375.964 17.933ZM379.041 13.7139L387.736 2.48734L386.155 1.26266L377.459 12.4892L379.041 13.7139ZM386.945 2.875H395.594V0.875H386.945V2.875ZM394.813 1.25075L382.695 16.4148L384.258 17.6633L396.375 2.49925L394.813 1.25075ZM382.641 17.5885L395.11 36.5494L396.781 35.4506L384.312 16.4896L382.641 17.5885ZM395.945 35H387.578V37H395.945V35ZM388.42 35.4607L379.655 21.7732L377.97 22.8518L386.736 36.5393L388.42 35.4607ZM414.883 24L414.274 24.7937L414.283 24.8L414.883 24ZM409.82 21.75L409.51 22.7005L409.515 22.7023L409.82 21.75ZM404.031 19.4062L403.556 20.286L403.557 20.2867L404.031 19.4062ZM399.766 6.02344L398.954 5.4389L398.953 5.44053L399.766 6.02344ZM404.242 2.625L403.858 1.7017L403.855 1.70281L404.242 2.625ZM417.32 2.74219L416.897 3.6482L416.903 3.65102L417.32 2.74219ZM421.75 6.46875L420.912 7.01404L420.915 7.01971L421.75 6.46875ZM423.344 11.9531V12.9531H424.344V11.9531H423.344ZM416.312 11.9531H415.312V12.9531H416.312V11.9531ZM414.836 8.32031L414.172 9.06775L414.178 9.07363L414.836 8.32031ZM406.68 8.10938L407.282 8.90784L407.29 8.90152L406.68 8.10938ZM406.914 13.7578L406.354 14.5863L406.359 14.5899L406.914 13.7578ZM411.859 15.8672L411.57 16.8244L411.571 16.8248L411.859 15.8672ZM419.992 33.9609L420.591 34.7616L420.595 34.7589L419.992 33.9609ZM403.797 35.0391L403.387 35.9512L403.393 35.9537L403.797 35.0391ZM398.852 31.0781L398.022 31.6364L398.025 31.6417L398.852 31.0781ZM397.164 25.2656V24.2656H396.164V25.2656H397.164ZM404.219 25.2656H405.219V24.2656H404.219V25.2656ZM414.883 29.9062L415.465 30.7191L415.474 30.7127L414.883 29.9062ZM417.289 27.0469C417.289 25.452 416.708 24.119 415.483 23.2L414.283 24.8C414.932 25.2872 415.289 25.9855 415.289 27.0469H417.289ZM415.491 23.2064C414.407 22.3748 412.575 21.5828 410.126 20.7977L409.515 22.7023C411.941 23.4797 413.484 24.1877 414.274 24.7936L415.491 23.2064ZM410.131 20.7995C407.721 20.0117 405.854 19.2519 404.505 18.5258L403.557 20.2867C405.052 21.0919 407.044 21.8946 409.51 22.7005L410.131 20.7995ZM404.507 18.5265C400.862 16.5574 399.219 14.0306 399.219 10.9453H397.219C397.219 14.9538 399.45 18.0676 403.556 20.286L404.507 18.5265ZM399.219 10.9453C399.219 9.30129 399.674 7.86644 400.578 6.60635L398.953 5.44053C397.795 7.05543 397.219 8.90183 397.219 10.9453H399.219ZM400.577 6.60797C401.499 5.3286 402.832 4.30092 404.629 3.54719L403.855 1.70281C401.778 2.57408 400.126 3.81202 398.954 5.4389L400.577 6.60797ZM404.626 3.5483C406.441 2.79324 408.496 2.40625 410.805 2.40625V0.40625C408.27 0.40625 405.949 0.831762 403.858 1.7017L404.626 3.5483ZM410.805 2.40625C413.119 2.40625 415.143 2.82855 416.897 3.64818L417.744 1.83619C415.685 0.874572 413.365 0.40625 410.805 0.40625V2.40625ZM416.903 3.65102C418.654 4.45468 419.977 5.57779 420.912 7.01402L422.588 5.92348C421.429 4.14096 419.799 2.7797 417.737 1.83336L416.903 3.65102ZM420.915 7.01971C421.863 8.45536 422.344 10.0895 422.344 11.9531H424.344C424.344 9.72299 423.762 7.70089 422.585 5.91779L420.915 7.01971ZM423.344 10.9531H416.312V12.9531H423.344V10.9531ZM417.312 11.9531C417.312 10.1638 416.738 8.65352 415.494 7.567L414.178 9.07363C414.902 9.70585 415.312 10.6175 415.312 11.9531H417.312ZM415.5 7.5729C414.277 6.48533 412.626 6.00781 410.688 6.00781V8.00781C412.311 8.00781 413.426 8.4053 414.172 9.06772L415.5 7.5729ZM410.688 6.00781C408.84 6.00781 407.258 6.40107 406.069 7.31723L407.29 8.90152C408.007 8.34893 409.098 8.00781 410.688 8.00781V6.00781ZM406.078 7.31095C404.875 8.21748 404.25 9.46547 404.25 10.9688H406.25C406.25 10.097 406.578 9.43877 407.282 8.9078L406.078 7.31095ZM404.25 10.9688C404.25 12.4818 405.035 13.6943 406.354 14.5863L407.474 12.9294C406.575 12.3213 406.25 11.6745 406.25 10.9688H404.25ZM406.359 14.5899C407.603 15.4189 409.359 16.1562 411.57 16.8244L412.149 14.9099C410.016 14.2656 408.475 13.5967 407.469 12.9258L406.359 14.5899ZM411.571 16.8248C415.504 18.0077 418.242 19.4407 419.904 21.06L421.299 19.6275C419.305 17.6843 416.215 16.1329 412.147 14.9096L411.571 16.8248ZM419.904 21.06C421.53 22.6446 422.344 24.6012 422.344 27H424.344C424.344 24.0863 423.329 21.6054 421.299 19.6275L419.904 21.06ZM422.344 27C422.344 29.6595 421.358 31.6762 419.39 33.163L420.595 34.7589C423.095 32.8707 424.344 30.2467 424.344 27H422.344ZM419.393 33.1603C417.384 34.6638 414.61 35.4688 410.969 35.4688V37.4688C414.89 37.4688 418.132 36.6019 420.591 34.7616L419.393 33.1603ZM410.969 35.4688C408.467 35.4688 406.216 35.0152 404.201 34.1244L403.393 35.9537C405.69 36.9692 408.22 37.4688 410.969 37.4688V35.4688ZM404.207 34.1269C402.19 33.2208 400.698 32.01 399.678 30.5145L398.025 31.6417C399.286 33.49 401.091 34.9198 403.387 35.9512L404.207 34.1269ZM399.681 30.5199C398.678 29.0284 398.164 27.2892 398.164 25.2656H396.164C396.164 27.6483 396.776 29.7841 398.022 31.6364L399.681 30.5199ZM397.164 26.2656H404.219V24.2656H397.164V26.2656ZM403.219 25.2656C403.219 27.354 403.851 29.0862 405.264 30.2689C406.644 31.423 408.604 31.9141 410.969 31.9141V29.9141C408.834 29.9141 407.419 29.4637 406.548 28.735C405.711 28.0349 405.219 26.9429 405.219 25.2656H403.219ZM410.969 31.9141C412.76 31.9141 414.297 31.5563 415.465 30.7191L414.3 29.0934C413.594 29.6 412.522 29.9141 410.969 29.9141V31.9141ZM415.474 30.7127C416.683 29.8263 417.289 28.5661 417.289 27.0469H415.289C415.289 27.9652 414.958 28.6112 414.291 29.0998L415.474 30.7127Z" fill="black" fill-opacity="0.2"/>
</svg>
