<svg width="423" height="36" viewBox="0 0 423 36" fill="none" xmlns="http://www.w3.org/2000/svg">
<path d="M20.5781 21.0547H7.07812V35H0.046875V0.875H22.2656V6.57031H7.07812V15.3828H20.5781V21.0547ZM46.875 20.2109H33.375V29.3516H49.2188V35H26.3438V0.875H49.1719V6.57031H33.375V14.7031H46.875V20.2109ZM72.6094 27.9688H60.2812L57.9375 35H50.4609L63.1641 0.875H69.6797L82.4531 35H74.9766L72.6094 27.9688ZM62.1797 22.2734H70.7109L66.4219 9.5L62.1797 22.2734ZM108.516 6.57031H98.0625V35H91.0312V6.57031H80.7188V0.875H108.516V6.57031ZM138.375 0.875V23.3516C138.375 27.0859 137.203 30.0391 134.859 32.2109C132.531 34.3828 129.344 35.4688 125.297 35.4688C121.312 35.4688 118.148 34.4141 115.805 32.3047C113.461 30.1953 112.266 27.2969 112.219 23.6094V0.875H119.25V23.3984C119.25 25.6328 119.781 27.2656 120.844 28.2969C121.922 29.3125 123.406 29.8203 125.297 29.8203C129.25 29.8203 131.258 27.7422 131.32 23.5859V0.875H138.375ZM156.773 22.5078H151.172V35H144.141V0.875H156.82C160.852 0.875 163.961 1.77344 166.148 3.57031C168.336 5.36719 169.43 7.90625 169.43 11.1875C169.43 13.5156 168.922 15.4609 167.906 17.0234C166.906 18.5703 165.383 19.8047 163.336 20.7266L170.719 34.6719V35H163.172L156.773 22.5078ZM151.172 16.8125H156.844C158.609 16.8125 159.977 16.3672 160.945 15.4766C161.914 14.5703 162.398 13.3281 162.398 11.75C162.398 10.1406 161.938 8.875 161.016 7.95312C160.109 7.03125 158.711 6.57031 156.82 6.57031H151.172V16.8125ZM195.328 20.2109H181.828V29.3516H197.672V35H174.797V0.875H197.625V6.57031H181.828V14.7031H195.328V20.2109ZM201.797 35V0.875H212.297C215.297 0.875 217.977 1.55469 220.336 2.91406C222.711 4.25781 224.562 6.17969 225.891 8.67969C227.219 11.1641 227.883 13.9922 227.883 17.1641V18.7344C227.883 21.9062 227.227 24.7266 225.914 27.1953C224.617 29.6641 222.781 31.5781 220.406 32.9375C218.031 34.2969 215.352 34.9844 212.367 35H201.797ZM208.828 6.57031V29.3516H212.227C214.977 29.3516 217.078 28.4531 218.531 26.6562C219.984 24.8594 220.727 22.2891 220.758 18.9453V17.1406C220.758 13.6719 220.039 11.0469 218.602 9.26562C217.164 7.46875 215.062 6.57031 212.297 6.57031H208.828ZM269.25 6.57031H258.797V35H251.766V6.57031H241.453V0.875H269.25V6.57031ZM285.914 22.5078H280.312V35H273.281V0.875H285.961C289.992 0.875 293.102 1.77344 295.289 3.57031C297.477 5.36719 298.57 7.90625 298.57 11.1875C298.57 13.5156 298.062 15.4609 297.047 17.0234C296.047 18.5703 294.523 19.8047 292.477 20.7266L299.859 34.6719V35H292.312L285.914 22.5078ZM280.312 16.8125H285.984C287.75 16.8125 289.117 16.3672 290.086 15.4766C291.055 14.5703 291.539 13.3281 291.539 11.75C291.539 10.1406 291.078 8.875 290.156 7.95312C289.25 7.03125 287.852 6.57031 285.961 6.57031H280.312V16.8125ZM323.203 27.9688H310.875L308.531 35H301.055L313.758 0.875H320.273L333.047 35H325.57L323.203 27.9688ZM312.773 22.2734H321.305L317.016 9.5L312.773 22.2734ZM362.508 23.6328C362.242 27.3047 360.883 30.1953 358.43 32.3047C355.992 34.4141 352.773 35.4688 348.773 35.4688C344.398 35.4688 340.953 34 338.438 31.0625C335.938 28.1094 334.688 24.0625 334.688 18.9219V16.8359C334.688 13.5547 335.266 10.6641 336.422 8.16406C337.578 5.66406 339.227 3.75 341.367 2.42188C343.523 1.07812 346.023 0.40625 348.867 0.40625C352.805 0.40625 355.977 1.46094 358.383 3.57031C360.789 5.67969 362.18 8.64062 362.555 12.4531H355.523C355.352 10.25 354.734 8.65625 353.672 7.67188C352.625 6.67188 351.023 6.17188 348.867 6.17188C346.523 6.17188 344.766 7.01562 343.594 8.70312C342.438 10.375 341.844 12.9766 341.812 16.5078V19.0859C341.812 22.7734 342.367 25.4688 343.477 27.1719C344.602 28.875 346.367 29.7266 348.773 29.7266C350.945 29.7266 352.562 29.2344 353.625 28.25C354.703 27.25 355.32 25.7109 355.477 23.6328H362.508ZM377.812 21.3125L374.156 25.25V35H367.125V0.875H374.156V16.3438L377.25 12.1016L385.945 0.875H394.594L382.477 16.0391L394.945 35H386.578L377.812 21.3125ZM415.289 26.0469C415.289 24.7188 414.82 23.7031 413.883 23C412.945 22.2812 411.258 21.5312 408.82 20.75C406.383 19.9531 404.453 19.1719 403.031 18.4062C399.156 16.3125 397.219 13.4922 397.219 9.94531C397.219 8.10156 397.734 6.46094 398.766 5.02344C399.812 3.57031 401.305 2.4375 403.242 1.625C405.195 0.8125 407.383 0.40625 409.805 0.40625C412.242 0.40625 414.414 0.851562 416.32 1.74219C418.227 2.61719 419.703 3.85938 420.75 5.46875C421.812 7.07812 422.344 8.90625 422.344 10.9531H415.312C415.312 9.39062 414.82 8.17969 413.836 7.32031C412.852 6.44531 411.469 6.00781 409.688 6.00781C407.969 6.00781 406.633 6.375 405.68 7.10938C404.727 7.82812 404.25 8.78125 404.25 9.96875C404.25 11.0781 404.805 12.0078 405.914 12.7578C407.039 13.5078 408.688 14.2109 410.859 14.8672C414.859 16.0703 417.773 17.5625 419.602 19.3438C421.43 21.125 422.344 23.3438 422.344 26C422.344 28.9531 421.227 31.2734 418.992 32.9609C416.758 34.6328 413.75 35.4688 409.969 35.4688C407.344 35.4688 404.953 34.9922 402.797 34.0391C400.641 33.0703 398.992 31.75 397.852 30.0781C396.727 28.4062 396.164 26.4688 396.164 24.2656H403.219C403.219 28.0312 405.469 29.9141 409.969 29.9141C411.641 29.9141 412.945 29.5781 413.883 28.9062C414.82 28.2188 415.289 27.2656 415.289 26.0469Z" fill="#111111"/>
</svg>
