<svg width="234" height="36" viewBox="0 0 234 36" fill="none" xmlns="http://www.w3.org/2000/svg">
<path d="M7.07812 22.9766V35H0.046875V0.875H13.3594C15.9219 0.875 18.1719 1.34375 20.1094 2.28125C22.0625 3.21875 23.5625 4.55469 24.6094 6.28906C25.6562 8.00781 26.1797 9.96875 26.1797 12.1719C26.1797 15.5156 25.0312 18.1562 22.7344 20.0938C20.4531 22.0156 17.2891 22.9766 13.2422 22.9766H7.07812ZM7.07812 17.2812H13.3594C15.2188 17.2812 16.6328 16.8438 17.6016 15.9688C18.5859 15.0938 19.0781 13.8438 19.0781 12.2188C19.0781 10.5469 18.5859 9.19531 17.6016 8.16406C16.6172 7.13281 15.2578 6.60156 13.5234 6.57031H7.07812V17.2812ZM43.6641 22.5078H38.0625V35H31.0312V0.875H43.7109C47.7422 0.875 50.8516 1.77344 53.0391 3.57031C55.2266 5.36719 56.3203 7.90625 56.3203 11.1875C56.3203 13.5156 55.8125 15.4609 54.7969 17.0234C53.7969 18.5703 52.2734 19.8047 50.2266 20.7266L57.6094 34.6719V35H50.0625L43.6641 22.5078ZM38.0625 16.8125H43.7344C45.5 16.8125 46.8672 16.3672 47.8359 15.4766C48.8047 14.5703 49.2891 13.3281 49.2891 11.75C49.2891 10.1406 48.8281 8.875 47.9062 7.95312C47 7.03125 45.6016 6.57031 43.7109 6.57031H38.0625V16.8125ZM89.7188 18.7109C89.7188 22.0703 89.125 25.0156 87.9375 27.5469C86.75 30.0781 85.0469 32.0312 82.8281 33.4062C80.625 34.7812 78.0938 35.4688 75.2344 35.4688C72.4062 35.4688 69.8828 34.7891 67.6641 33.4297C65.4453 32.0703 63.7266 30.1328 62.5078 27.6172C61.2891 25.0859 60.6719 22.1797 60.6562 18.8984V17.2109C60.6562 13.8516 61.2578 10.8984 62.4609 8.35156C63.6797 5.78906 65.3906 3.82812 67.5938 2.46875C69.8125 1.09375 72.3438 0.40625 75.1875 0.40625C78.0312 0.40625 80.5547 1.09375 82.7578 2.46875C84.9766 3.82812 86.6875 5.78906 87.8906 8.35156C89.1094 10.8984 89.7188 13.8438 89.7188 17.1875V18.7109ZM82.5938 17.1641C82.5938 13.5859 81.9531 10.8672 80.6719 9.00781C79.3906 7.14844 77.5625 6.21875 75.1875 6.21875C72.8281 6.21875 71.0078 7.14062 69.7266 8.98438C68.4453 10.8125 67.7969 13.5 67.7812 17.0469V18.7109C67.7812 22.1953 68.4219 24.8984 69.7031 26.8203C70.9844 28.7422 72.8281 29.7031 75.2344 29.7031C77.5938 29.7031 79.4062 28.7812 80.6719 26.9375C81.9375 25.0781 82.5781 22.375 82.5938 18.8281V17.1641ZM108.586 0.875H115.617V24.5C115.617 26.6719 115.133 28.5938 114.164 30.2656C113.211 31.9219 111.859 33.2031 110.109 34.1094C108.359 35.0156 106.383 35.4688 104.18 35.4688C100.57 35.4688 97.7578 34.5547 95.7422 32.7266C93.7266 30.8828 92.7188 28.2812 92.7188 24.9219H99.7969C99.7969 26.5938 100.148 27.8281 100.852 28.625C101.555 29.4219 102.664 29.8203 104.18 29.8203C105.523 29.8203 106.594 29.3594 107.391 28.4375C108.188 27.5156 108.586 26.2031 108.586 24.5V0.875ZM142.172 20.2109H128.672V29.3516H144.516V35H121.641V0.875H144.469V6.57031H128.672V14.7031H142.172V20.2109ZM175.43 23.6328C175.164 27.3047 173.805 30.1953 171.352 32.3047C168.914 34.4141 165.695 35.4688 161.695 35.4688C157.32 35.4688 153.875 34 151.359 31.0625C148.859 28.1094 147.609 24.0625 147.609 18.9219V16.8359C147.609 13.5547 148.188 10.6641 149.344 8.16406C150.5 5.66406 152.148 3.75 154.289 2.42188C156.445 1.07812 158.945 0.40625 161.789 0.40625C165.727 0.40625 168.898 1.46094 171.305 3.57031C173.711 5.67969 175.102 8.64062 175.477 12.4531H168.445C168.273 10.25 167.656 8.65625 166.594 7.67188C165.547 6.67188 163.945 6.17188 161.789 6.17188C159.445 6.17188 157.688 7.01562 156.516 8.70312C155.359 10.375 154.766 12.9766 154.734 16.5078V19.0859C154.734 22.7734 155.289 25.4688 156.398 27.1719C157.523 28.875 159.289 29.7266 161.695 29.7266C163.867 29.7266 165.484 29.2344 166.547 28.25C167.625 27.25 168.242 25.7109 168.398 23.6328H175.43ZM205.031 6.57031H194.578V35H187.547V6.57031H177.234V0.875H205.031V6.57031ZM226.383 26.0469C226.383 24.7188 225.914 23.7031 224.977 23C224.039 22.2812 222.352 21.5312 219.914 20.75C217.477 19.9531 215.547 19.1719 214.125 18.4062C210.25 16.3125 208.312 13.4922 208.312 9.94531C208.312 8.10156 208.828 6.46094 209.859 5.02344C210.906 3.57031 212.398 2.4375 214.336 1.625C216.289 0.8125 218.477 0.40625 220.898 0.40625C223.336 0.40625 225.508 0.851562 227.414 1.74219C229.32 2.61719 230.797 3.85938 231.844 5.46875C232.906 7.07812 233.438 8.90625 233.438 10.9531H226.406C226.406 9.39062 225.914 8.17969 224.93 7.32031C223.945 6.44531 222.562 6.00781 220.781 6.00781C219.062 6.00781 217.727 6.375 216.773 7.10938C215.82 7.82812 215.344 8.78125 215.344 9.96875C215.344 11.0781 215.898 12.0078 217.008 12.7578C218.133 13.5078 219.781 14.2109 221.953 14.8672C225.953 16.0703 228.867 17.5625 230.695 19.3438C232.523 21.125 233.438 23.3438 233.438 26C233.438 28.9531 232.32 31.2734 230.086 32.9609C227.852 34.6328 224.844 35.4688 221.062 35.4688C218.438 35.4688 216.047 34.9922 213.891 34.0391C211.734 33.0703 210.086 31.75 208.945 30.0781C207.82 28.4062 207.258 26.4688 207.258 24.2656H214.312C214.312 28.0312 216.562 29.9141 221.062 29.9141C222.734 29.9141 224.039 29.5781 224.977 28.9062C225.914 28.2188 226.383 27.2656 226.383 26.0469Z" fill="#111111"/>
</svg>
