<svg width="236" height="38" viewBox="0 0 236 38" fill="none" xmlns="http://www.w3.org/2000/svg">
<path d="M8.07812 23.9766V22.9766H7.07812V23.9766H8.07812ZM8.07812 36V37H9.07812V36H8.07812ZM1.04688 36H0.046875V37H1.04688V36ZM1.04688 1.875V0.875H0.046875V1.875H1.04688ZM21.1094 3.28125L20.6738 4.18141L20.6766 4.18277L21.1094 3.28125ZM25.6094 7.28906L24.7532 7.80583L24.7553 7.80926L25.6094 7.28906ZM23.7344 21.0938L24.3787 21.8585L24.3792 21.8581L23.7344 21.0938ZM8.07812 18.2812H7.07812V19.2812H8.07812V18.2812ZM18.6016 16.9688L17.9372 16.2213L17.9313 16.2266L18.6016 16.9688ZM14.5234 7.57031L14.5415 6.57047L14.5324 6.57031H14.5234V7.57031ZM8.07812 7.57031V6.57031H7.07812V7.57031H8.07812ZM7.07812 23.9766V36H9.07812V23.9766H7.07812ZM8.07812 35H1.04688V37H8.07812V35ZM2.04688 36V1.875H0.046875V36H2.04688ZM1.04688 2.875H14.3594V0.875H1.04688V2.875ZM14.3594 2.875C16.7995 2.875 18.8956 3.32098 20.6738 4.18141L21.5449 2.38109C19.4482 1.36652 17.0443 0.875 14.3594 0.875V2.875ZM20.6766 4.18277C22.467 5.04212 23.8141 6.24993 24.7532 7.80583L26.4655 6.7723C25.3109 4.85945 23.658 3.39538 21.5421 2.37973L20.6766 4.18277ZM24.7553 7.80926C25.6978 9.35662 26.1797 11.1343 26.1797 13.1719H28.1797C28.1797 10.8032 27.6147 8.65901 26.4634 6.76887L24.7553 7.80926ZM26.1797 13.1719C26.1797 16.2584 25.1341 18.6048 23.0896 20.3294L24.3792 21.8581C26.9284 19.7077 28.1797 16.7729 28.1797 13.1719H26.1797ZM23.0901 20.329C21.0445 22.0523 18.1375 22.9766 14.2422 22.9766V24.9766C18.4406 24.9766 21.8617 23.979 24.3787 21.8585L23.0901 20.329ZM14.2422 22.9766H8.07812V24.9766H14.2422V22.9766ZM8.07812 19.2812H14.3594V17.2812H8.07812V19.2812ZM14.3594 19.2812C16.362 19.2812 18.0543 18.8106 19.2718 17.7109L17.9313 16.2266C17.2113 16.8769 16.0755 17.2812 14.3594 17.2812V19.2812ZM19.2659 17.7162C20.5124 16.6082 21.0781 15.0572 21.0781 13.2188H19.0781C19.0781 14.6303 18.6595 15.5793 17.9372 16.2213L19.2659 17.7162ZM21.0781 13.2188C21.0781 11.3372 20.5172 9.72262 19.3249 8.47359L17.8782 9.85454C18.6547 10.668 19.0781 11.7565 19.0781 13.2188H21.0781ZM19.3249 8.47359C18.1175 7.20866 16.481 6.60542 14.5415 6.57047L14.5054 8.57015C16.0346 8.5977 17.1169 9.05697 17.8782 9.85454L19.3249 8.47359ZM14.5234 6.57031H8.07812V8.57031H14.5234V6.57031ZM7.07812 7.57031V18.2812H9.07812V7.57031H7.07812ZM44.6641 23.5078L45.5541 23.0519L45.2754 22.5078H44.6641V23.5078ZM39.0625 23.5078V22.5078H38.0625V23.5078H39.0625ZM39.0625 36V37H40.0625V36H39.0625ZM32.0312 36H31.0312V37H32.0312V36ZM32.0312 1.875V0.875H31.0312V1.875H32.0312ZM55.7969 18.0234L54.9584 17.4784L54.9571 17.4805L55.7969 18.0234ZM51.2266 21.7266L50.8159 20.8148L49.8441 21.2525L50.3428 22.1945L51.2266 21.7266ZM58.6094 35.6719H59.6094V35.4235L59.4932 35.204L58.6094 35.6719ZM58.6094 36V37H59.6094V36H58.6094ZM51.0625 36L50.1725 36.4559L50.4512 37H51.0625V36ZM39.0625 17.8125H38.0625V18.8125H39.0625V17.8125ZM48.8359 16.4766L49.5128 17.2128L49.5191 17.2068L48.8359 16.4766ZM48.9062 8.95312L48.1931 9.65419L48.1991 9.66023L48.9062 8.95312ZM39.0625 7.57031V6.57031H38.0625V7.57031H39.0625ZM44.6641 22.5078H39.0625V24.5078H44.6641V22.5078ZM38.0625 23.5078V36H40.0625V23.5078H38.0625ZM39.0625 35H32.0312V37H39.0625V35ZM33.0312 36V1.875H31.0312V36H33.0312ZM32.0312 2.875H44.7109V0.875H32.0312V2.875ZM44.7109 2.875C48.6069 2.875 51.4581 3.7444 53.4043 5.34304L54.6738 3.79759C52.245 1.80248 48.8774 0.875 44.7109 0.875V2.875ZM53.4043 5.34304C55.3224 6.91858 56.3203 9.15228 56.3203 12.1875H58.3203C58.3203 8.66022 57.1307 5.81579 54.6738 3.79759L53.4043 5.34304ZM56.3203 12.1875C56.3203 14.3704 55.8451 16.1143 54.9584 17.4784L56.6353 18.5684C57.7799 16.8076 58.3203 14.6609 58.3203 12.1875H56.3203ZM54.9571 17.4805C54.0825 18.8334 52.7259 19.9546 50.8159 20.8148L51.6372 22.6384C53.821 21.6548 55.5113 20.3072 56.6367 18.5663L54.9571 17.4805ZM50.3428 22.1945L57.7256 36.1398L59.4932 35.204L52.1104 21.2587L50.3428 22.1945ZM57.6094 35.6719V36H59.6094V35.6719H57.6094ZM58.6094 35H51.0625V37H58.6094V35ZM51.9525 35.5441L45.5541 23.0519L43.774 23.9637L50.1725 36.4559L51.9525 35.5441ZM39.0625 18.8125H44.7344V16.8125H39.0625V18.8125ZM44.7344 18.8125C46.6635 18.8125 48.304 18.324 49.5127 17.2127L48.1591 15.7404C47.4304 16.4104 46.3365 16.8125 44.7344 16.8125V18.8125ZM49.5191 17.2068C50.7281 16.0758 51.2891 14.548 51.2891 12.75H49.2891C49.2891 14.1083 48.8813 15.0648 48.1528 15.7463L49.5191 17.2068ZM51.2891 12.75C51.2891 10.9414 50.7648 9.39742 49.6134 8.24602L48.1991 9.66023C48.8915 10.3526 49.2891 11.3399 49.2891 12.75H51.2891ZM49.6194 8.25209C48.453 7.06563 46.7456 6.57031 44.7109 6.57031V8.57031C46.4575 8.57031 47.547 8.99688 48.1931 9.65416L49.6194 8.25209ZM44.7109 6.57031H39.0625V8.57031H44.7109V6.57031ZM38.0625 7.57031V17.8125H40.0625V7.57031H38.0625ZM83.8281 34.4062L83.3014 33.5562L83.2987 33.5579L83.8281 34.4062ZM63.5078 28.6172L62.6068 29.051L62.6079 29.0532L63.5078 28.6172ZM61.6562 19.8984H60.6562L60.6563 19.9032L61.6562 19.8984ZM63.4609 9.35156L62.5579 8.92205L62.5567 8.92443L63.4609 9.35156ZM68.5938 3.46875L69.1189 4.31979L69.1205 4.31876L68.5938 3.46875ZM83.7578 3.46875L83.2283 4.31711L83.2354 4.32144L83.7578 3.46875ZM88.8906 9.35156L87.9854 9.77657L87.9886 9.78321L88.8906 9.35156ZM70.7266 9.98438L71.5455 10.5583L71.5478 10.555L70.7266 9.98438ZM68.7812 18.0469L67.7812 18.0425V18.0469H68.7812ZM81.6719 27.9375L82.4963 28.5034L82.4985 28.5002L81.6719 27.9375ZM83.5938 19.8281L84.5938 19.8325V19.8281H83.5938ZM89.7188 19.7109C89.7188 22.9526 89.146 25.7479 88.0322 28.1222L89.8428 28.9716C91.104 26.2834 91.7188 23.188 91.7188 19.7109H89.7188ZM88.0322 28.1222C86.9209 30.491 85.3435 32.2907 83.3014 33.5562L84.3549 35.2563C86.7502 33.7718 88.5791 31.6652 89.8428 28.9716L88.0322 28.1222ZM83.2987 33.5579C81.2702 34.8239 78.9261 35.4688 76.2344 35.4688V37.4688C79.2614 37.4688 81.9798 36.7386 84.3576 35.2546L83.2987 33.5579ZM76.2344 35.4688C73.574 35.4688 71.2344 34.8317 69.1865 33.577L68.1416 35.2824C70.5312 36.7464 73.2385 37.4688 76.2344 37.4688V35.4688ZM69.1865 33.577C67.143 32.325 65.5496 30.538 64.4078 28.1812L62.6079 29.0532C63.9035 31.7276 65.7476 33.8156 68.1416 35.2824L69.1865 33.577ZM64.4088 28.1834C63.2645 25.8067 62.6713 23.0512 62.6562 19.8937L60.6563 19.9032C60.6725 23.3082 61.3136 26.3652 62.6068 29.051L64.4088 28.1834ZM62.6562 19.8984V18.2109H60.6562V19.8984H62.6562ZM62.6562 18.2109C62.6562 14.9712 63.2361 12.1687 64.3651 9.77869L62.5567 8.92443C61.2795 11.6281 60.6562 14.732 60.6562 18.2109H62.6562ZM64.364 9.78107C65.5083 7.37518 67.0953 5.56834 69.1189 4.31979L68.0686 2.61771C65.6859 4.08791 63.8511 6.20295 62.5579 8.92206L64.364 9.78107ZM69.1205 4.31876C71.167 3.05052 73.5126 2.40625 76.1875 2.40625V0.40625C73.1749 0.40625 70.458 1.13698 68.067 2.61874L69.1205 4.31876ZM76.1875 2.40625C78.8625 2.40625 81.199 3.05053 83.2284 4.31709L84.2873 2.62041C81.9104 1.13697 79.2 0.40625 76.1875 0.40625V2.40625ZM83.2354 4.32144C85.2728 5.56973 86.8577 7.37473 87.9854 9.77656L89.7958 8.92656C88.5173 6.20339 86.6803 4.08652 84.2802 2.61606L83.2354 4.32144ZM87.9886 9.78321C89.132 12.1727 89.7188 14.9659 89.7188 18.1875H91.7188C91.7188 14.7216 91.0867 11.6242 89.7927 8.91991L87.9886 9.78321ZM89.7188 18.1875V19.7109H91.7188V18.1875H89.7188ZM84.5938 18.1641C84.5938 14.4924 83.9409 11.5383 82.4953 9.4404L80.8484 10.5752C81.9654 12.1961 82.5938 14.6795 82.5938 18.1641H84.5938ZM82.4953 9.4404C81.0162 7.29395 78.8712 6.21875 76.1875 6.21875V8.21875C78.2538 8.21875 79.765 9.00293 80.8484 10.5752L82.4953 9.4404ZM76.1875 6.21875C73.5203 6.21875 71.3845 7.2852 69.9054 9.41372L71.5478 10.555C72.6311 8.99605 74.1359 8.21875 76.1875 8.21875V6.21875ZM69.9077 9.41044C68.4589 11.4776 67.7973 14.4023 67.7813 18.0425L69.7812 18.0513C69.7965 14.5977 70.4317 12.1474 71.5455 10.5583L69.9077 9.41044ZM67.7812 18.0469V19.7109H69.7812V18.0469H67.7812ZM67.7812 19.7109C67.7812 23.2987 68.4378 26.225 69.8711 28.375L71.5352 27.2656C70.406 25.5718 69.7812 23.0919 69.7812 19.7109H67.7812ZM69.8711 28.375C71.3469 30.5887 73.5105 31.7031 76.2344 31.7031V29.7031C74.1458 29.7031 72.6219 28.8957 71.5352 27.2656L69.8711 28.375ZM76.2344 31.7031C78.9018 31.7031 81.0323 30.6362 82.4963 28.5034L80.8474 27.3716C79.7802 28.9263 78.2857 29.7031 76.2344 29.7031V31.7031ZM82.4985 28.5002C83.9238 26.4063 84.5777 23.4728 84.5937 19.8325L82.5938 19.8237C82.5785 23.2772 81.9512 25.75 80.8452 27.3748L82.4985 28.5002ZM84.5938 19.8281V18.1641H82.5938V19.8281H84.5938ZM109.586 1.875V0.875H108.586V1.875H109.586ZM116.617 1.875H117.617V0.875H116.617V1.875ZM115.164 31.2656L114.299 30.7643L114.297 30.7668L115.164 31.2656ZM96.7422 33.7266L96.0672 34.4644L96.0704 34.4673L96.7422 33.7266ZM93.7188 25.9219V24.9219H92.7188V25.9219H93.7188ZM100.797 25.9219H101.797V24.9219H100.797V25.9219ZM109.586 2.875H116.617V0.875H109.586V2.875ZM115.617 1.875V25.5H117.617V1.875H115.617ZM115.617 25.5C115.617 27.5181 115.169 29.2629 114.299 30.7643L116.029 31.767C117.097 29.9246 117.617 27.8256 117.617 25.5H115.617ZM114.297 30.7668C113.443 32.2517 112.235 33.4003 110.65 34.2214L111.569 35.9974C113.484 35.0059 114.979 33.5921 116.031 31.7644L114.297 30.7668ZM110.65 34.2214C109.058 35.0457 107.242 35.4688 105.18 35.4688V37.4688C107.524 37.4688 109.661 36.9855 111.569 35.9974L110.65 34.2214ZM105.18 35.4688C101.736 35.4688 99.1924 34.5988 97.414 32.9858L96.0704 34.4673C98.3232 36.5105 101.405 37.4688 105.18 37.4688V35.4688ZM97.4171 32.9887C95.6549 31.3767 94.7188 29.0701 94.7188 25.9219H92.7188C92.7188 29.4924 93.7983 32.3889 96.0672 34.4644L97.4171 32.9887ZM93.7188 26.9219H100.797V24.9219H93.7188V26.9219ZM99.7969 25.9219C99.7969 27.7045 100.167 29.2273 101.102 30.2866L102.601 28.9634C102.13 28.4289 101.797 27.483 101.797 25.9219H99.7969ZM101.102 30.2866C102.064 31.3777 103.503 31.8203 105.18 31.8203V29.8203C103.825 29.8203 103.045 29.466 102.601 28.9634L101.102 30.2866ZM105.18 31.8203C106.78 31.8203 108.139 31.2573 109.147 30.0915L107.634 28.7835C107.048 29.4615 106.267 29.8203 105.18 29.8203V31.8203ZM109.147 30.0915C110.154 28.9271 110.586 27.3483 110.586 25.5H108.586C108.586 27.0579 108.221 28.1042 107.634 28.7835L109.147 30.0915ZM110.586 25.5V1.875H108.586V25.5H110.586ZM143.172 21.2109V22.2109H144.172V21.2109H143.172ZM129.672 21.2109V20.2109H128.672V21.2109H129.672ZM129.672 30.3516H128.672V31.3516H129.672V30.3516ZM145.516 30.3516H146.516V29.3516H145.516V30.3516ZM145.516 36V37H146.516V36H145.516ZM122.641 36H121.641V37H122.641V36ZM122.641 1.875V0.875H121.641V1.875H122.641ZM145.469 1.875H146.469V0.875H145.469V1.875ZM145.469 7.57031V8.57031H146.469V7.57031H145.469ZM129.672 7.57031V6.57031H128.672V7.57031H129.672ZM129.672 15.7031H128.672V16.7031H129.672V15.7031ZM143.172 15.7031H144.172V14.7031H143.172V15.7031ZM143.172 20.2109H129.672V22.2109H143.172V20.2109ZM128.672 21.2109V30.3516H130.672V21.2109H128.672ZM129.672 31.3516H145.516V29.3516H129.672V31.3516ZM144.516 30.3516V36H146.516V30.3516H144.516ZM145.516 35H122.641V37H145.516V35ZM123.641 36V1.875H121.641V36H123.641ZM122.641 2.875H145.469V0.875H122.641V2.875ZM144.469 1.875V7.57031H146.469V1.875H144.469ZM145.469 6.57031H129.672V8.57031H145.469V6.57031ZM128.672 7.57031V15.7031H130.672V7.57031H128.672ZM129.672 16.7031H143.172V14.7031H129.672V16.7031ZM142.172 15.7031V21.2109H144.172V15.7031H142.172ZM176.43 24.6328L177.427 24.705L177.505 23.6328H176.43V24.6328ZM172.352 33.3047L171.7 32.5465L171.697 32.5485L172.352 33.3047ZM152.359 32.0625L151.596 32.7086L151.6 32.713L152.359 32.0625ZM155.289 3.42188L155.816 4.27161L155.818 4.27056L155.289 3.42188ZM176.477 13.4531V14.4531H177.58L177.472 13.3552L176.477 13.4531ZM169.445 13.4531L168.448 13.5309L168.52 14.4531H169.445V13.4531ZM167.594 8.67188L166.903 9.39499L166.909 9.40025L166.914 9.40544L167.594 8.67188ZM157.516 9.70312L156.694 9.13273L156.693 9.13432L157.516 9.70312ZM155.734 17.5078L154.734 17.499V17.5078H155.734ZM157.398 28.1719L156.561 28.7177L156.564 28.723L157.398 28.1719ZM167.547 29.25L168.227 29.9836L168.227 29.9832L167.547 29.25ZM169.398 24.6328V23.6328H168.471L168.401 24.5578L169.398 24.6328ZM175.432 24.5607C175.183 28.0069 173.922 30.6351 171.7 32.5465L173.004 34.0629C175.687 31.7555 177.145 28.6025 177.427 24.705L175.432 24.5607ZM171.697 32.5485C169.482 34.4654 166.515 35.4688 162.695 35.4688V37.4688C166.876 37.4688 170.346 36.3628 173.006 34.0609L171.697 32.5485ZM162.695 35.4688C158.57 35.4688 155.418 34.0971 153.119 31.412L151.6 32.713C154.332 35.9029 158.071 37.4688 162.695 37.4688V35.4688ZM153.123 31.4164C150.82 28.6959 149.609 24.9044 149.609 19.9219H147.609C147.609 25.2206 148.899 29.5229 151.596 32.7086L153.123 31.4164ZM149.609 19.9219V17.8359H147.609V19.9219H149.609ZM149.609 17.8359C149.609 14.6723 150.167 11.9295 151.251 9.58384L149.436 8.74429C148.208 11.3986 147.609 14.4371 147.609 17.8359H149.609ZM151.251 9.58384C152.334 7.244 153.857 5.48709 155.816 4.27161L154.762 2.57214C152.44 4.01291 150.666 6.08413 149.436 8.74429L151.251 9.58384ZM155.818 4.27056C157.797 3.03718 160.109 2.40625 162.789 2.40625V0.40625C159.781 0.40625 157.094 1.11907 154.76 2.57319L155.818 4.27056ZM162.789 2.40625C166.542 2.40625 169.461 3.40739 171.645 5.32228L172.964 3.81834C170.336 1.51448 166.911 0.40625 162.789 0.40625V2.40625ZM171.645 5.32228C173.824 7.23221 175.126 9.93844 175.481 13.551L177.472 13.3552C177.077 9.34281 175.598 6.12717 172.964 3.81834L171.645 5.32228ZM176.477 12.4531H169.445V14.4531H176.477V12.4531ZM170.442 13.3753C170.261 11.0494 169.597 9.16435 168.273 7.93831L166.914 9.40544C167.716 10.1481 168.286 11.4506 168.448 13.5309L170.442 13.3753ZM168.284 7.94876C166.978 6.70074 165.079 6.17188 162.789 6.17188V8.17188C164.812 8.17188 166.116 8.64301 166.903 9.39499L168.284 7.94876ZM162.789 6.17188C160.171 6.17188 158.082 7.13503 156.694 9.13273L158.337 10.2735C159.293 8.89622 160.72 8.17188 162.789 8.17188V6.17188ZM156.693 9.13432C155.366 11.0528 154.766 13.898 154.734 17.499L156.734 17.5167C156.765 14.0551 157.352 11.6972 158.338 10.2719L156.693 9.13432ZM154.734 17.5078V20.0859H156.734V17.5078H154.734ZM154.734 20.0859C154.734 23.831 155.29 26.7668 156.561 28.7177L158.236 27.6261C157.288 26.1707 156.734 23.7159 156.734 20.0859H154.734ZM156.564 28.723C157.909 30.7598 160.023 31.7266 162.695 31.7266V29.7266C160.555 29.7266 159.137 28.9902 158.233 27.6207L156.564 28.723ZM162.695 31.7266C164.996 31.7266 166.905 31.2077 168.227 29.9836L166.867 28.5164C166.063 29.2611 164.738 29.7266 162.695 29.7266V31.7266ZM168.227 29.9832C169.555 28.7515 170.228 26.9326 170.396 24.7078L168.401 24.5578C168.256 26.4893 167.695 27.7485 166.867 28.5168L168.227 29.9832ZM169.398 25.6328H176.43V23.6328H169.398V25.6328ZM206.031 7.57031V8.57031H207.031V7.57031H206.031ZM195.578 7.57031V6.57031H194.578V7.57031H195.578ZM195.578 36V37H196.578V36H195.578ZM188.547 36H187.547V37H188.547V36ZM188.547 7.57031H189.547V6.57031H188.547V7.57031ZM178.234 7.57031H177.234V8.57031H178.234V7.57031ZM178.234 1.875V0.875H177.234V1.875H178.234ZM206.031 1.875H207.031V0.875H206.031V1.875ZM206.031 6.57031H195.578V8.57031H206.031V6.57031ZM194.578 7.57031V36H196.578V7.57031H194.578ZM195.578 35H188.547V37H195.578V35ZM189.547 36V7.57031H187.547V36H189.547ZM188.547 6.57031H178.234V8.57031H188.547V6.57031ZM179.234 7.57031V1.875H177.234V7.57031H179.234ZM178.234 2.875H206.031V0.875H178.234V2.875ZM205.031 1.875V7.57031H207.031V1.875H205.031ZM225.977 24L225.368 24.7937L225.377 24.8L225.977 24ZM220.914 21.75L220.603 22.7005L220.609 22.7023L220.914 21.75ZM215.125 19.4062L214.65 20.286L214.651 20.2867L215.125 19.4062ZM210.859 6.02344L210.048 5.4389L210.047 5.44053L210.859 6.02344ZM215.336 2.625L214.952 1.7017L214.949 1.70281L215.336 2.625ZM228.414 2.74219L227.991 3.6482L227.997 3.65102L228.414 2.74219ZM232.844 6.46875L232.005 7.01404L232.009 7.0197L232.844 6.46875ZM234.438 11.9531V12.9531H235.438V11.9531H234.438ZM227.406 11.9531H226.406V12.9531H227.406V11.9531ZM225.93 8.32031L225.265 9.06775L225.272 9.07363L225.93 8.32031ZM217.773 8.10938L218.376 8.90784L218.384 8.90152L217.773 8.10938ZM218.008 13.7578L217.448 14.5863L217.453 14.5899L218.008 13.7578ZM222.953 15.8672L222.664 16.8244L222.665 16.8248L222.953 15.8672ZM231.086 33.9609L231.685 34.7616L231.689 34.7589L231.086 33.9609ZM214.891 35.0391L214.481 35.9512L214.486 35.9537L214.891 35.0391ZM209.945 31.0781L209.116 31.6364L209.119 31.6417L209.945 31.0781ZM208.258 25.2656V24.2656H207.258V25.2656H208.258ZM215.312 25.2656H216.312V24.2656H215.312V25.2656ZM225.977 29.9062L226.559 30.7191L226.568 30.7127L225.977 29.9062ZM228.383 27.0469C228.383 25.452 227.802 24.119 226.577 23.2L225.377 24.8C226.026 25.2872 226.383 25.9855 226.383 27.0469H228.383ZM226.585 23.2064C225.5 22.3748 223.669 21.5828 221.219 20.7977L220.609 22.7023C223.034 23.4797 224.578 24.1877 225.368 24.7936L226.585 23.2064ZM221.225 20.7995C218.815 20.0117 216.948 19.2519 215.599 18.5258L214.651 20.2867C216.146 21.0919 218.138 21.8946 220.603 22.7005L221.225 20.7995ZM215.6 18.5265C211.956 16.5574 210.312 14.0306 210.312 10.9453H208.312C208.312 14.9538 210.544 18.0676 214.65 20.286L215.6 18.5265ZM210.312 10.9453C210.312 9.30129 210.768 7.86644 211.672 6.60635L210.047 5.44053C208.888 7.05543 208.312 8.90183 208.312 10.9453H210.312ZM211.671 6.60797C212.592 5.3286 213.925 4.30092 215.723 3.54719L214.949 1.70281C212.872 2.57408 211.22 3.81202 210.048 5.4389L211.671 6.60797ZM215.72 3.5483C217.535 2.79324 219.589 2.40625 221.898 2.40625V0.40625C219.364 0.40625 217.043 0.831761 214.952 1.7017L215.72 3.5483ZM221.898 2.40625C224.213 2.40625 226.236 2.82855 227.991 3.64818L228.837 1.83619C226.779 0.874573 224.459 0.40625 221.898 0.40625V2.40625ZM227.997 3.65102C229.748 4.45468 231.071 5.57779 232.005 7.01402L233.682 5.92348C232.523 4.14096 230.893 2.7797 228.831 1.83336L227.997 3.65102ZM232.009 7.0197C232.957 8.45536 233.438 10.0895 233.438 11.9531H235.438C235.438 9.72299 234.855 7.70089 233.678 5.9178L232.009 7.0197ZM234.438 10.9531H227.406V12.9531H234.438V10.9531ZM228.406 11.9531C228.406 10.1638 227.832 8.65352 226.587 7.567L225.272 9.07363C225.996 9.70585 226.406 10.6175 226.406 11.9531H228.406ZM226.594 7.5729C225.371 6.48533 223.72 6.00781 221.781 6.00781V8.00781C223.405 8.00781 224.52 8.40529 225.265 9.06772L226.594 7.5729ZM221.781 6.00781C219.934 6.00781 218.352 6.40107 217.163 7.31723L218.384 8.90152C219.101 8.34893 220.191 8.00781 221.781 8.00781V6.00781ZM217.171 7.31095C215.969 8.21748 215.344 9.46547 215.344 10.9688H217.344C217.344 10.097 217.671 9.43877 218.376 8.9078L217.171 7.31095ZM215.344 10.9688C215.344 12.4818 216.128 13.6943 217.448 14.5863L218.568 12.9294C217.668 12.3213 217.344 11.6745 217.344 10.9688H215.344ZM217.453 14.5899C218.697 15.4189 220.452 16.1562 222.664 16.8244L223.242 14.9099C221.11 14.2656 219.569 13.5967 218.563 12.9258L217.453 14.5899ZM222.665 16.8248C226.598 18.0077 229.336 19.4407 230.997 21.06L232.393 19.6275C230.399 17.6843 227.308 16.1329 223.241 14.9096L222.665 16.8248ZM230.997 21.06C232.624 22.6446 233.438 24.6012 233.438 27H235.438C235.438 24.0863 234.423 21.6054 232.393 19.6275L230.997 21.06ZM233.438 27C233.438 29.6595 232.452 31.6762 230.483 33.163L231.689 34.7589C234.189 32.8707 235.438 30.2467 235.438 27H233.438ZM230.487 33.1603C228.478 34.6637 225.703 35.4688 222.062 35.4688V37.4688C225.984 37.4688 229.226 36.6019 231.685 34.7616L230.487 33.1603ZM222.062 35.4688C219.561 35.4688 217.31 35.0152 215.295 34.1244L214.486 35.9537C216.784 36.9692 219.314 37.4688 222.062 37.4688V35.4688ZM215.3 34.1269C213.284 33.2208 211.792 32.01 210.771 30.5145L209.119 31.6417C210.38 33.49 212.185 34.9198 214.481 35.9512L215.3 34.1269ZM210.775 30.5199C209.771 29.0284 209.258 27.2892 209.258 25.2656H207.258C207.258 27.6483 207.869 29.7841 209.116 31.6364L210.775 30.5199ZM208.258 26.2656H215.312V24.2656H208.258V26.2656ZM214.312 25.2656C214.312 27.354 214.945 29.0862 216.358 30.2689C217.737 31.423 219.697 31.9141 222.062 31.9141V29.9141C219.928 29.9141 218.513 29.4637 217.642 28.735C216.805 28.0349 216.312 26.9429 216.312 25.2656H214.312ZM222.062 31.9141C223.853 31.9141 225.391 31.5563 226.559 30.7191L225.394 29.0934C224.687 29.6 223.615 29.9141 222.062 29.9141V31.9141ZM226.568 30.7127C227.777 29.8263 228.383 28.5661 228.383 27.0469H226.383C226.383 27.9652 226.052 28.6112 225.385 29.0998L226.568 30.7127Z" fill="black" fill-opacity="0.2"/>
</svg>
