<svg width="350" height="38" viewBox="0 0 350 38" fill="none" xmlns="http://www.w3.org/2000/svg">
<path d="M30.625 26.1562L29.6506 26.381L31.6076 26.3421L30.625 26.1562ZM35.2188 1.875V0.875H34.3902L34.2362 1.68911L35.2188 1.875ZM42.2266 1.875L43.2028 2.09158L43.4727 0.875H42.2266V1.875ZM34.6562 36V37H35.4587L35.6325 36.2166L34.6562 36ZM27.5781 36L26.6065 36.2364L26.7923 37H27.5781V36ZM22.0234 13.1719L22.9951 12.9354H21.0518L22.0234 13.1719ZM16.4688 36V37H17.2546L17.4404 36.2364L16.4688 36ZM9.39062 36L8.41436 36.2166L8.58815 37H9.39062V36ZM1.82031 1.875V0.875H0.574161L0.844047 2.09158L1.82031 1.875ZM8.82812 1.875L9.81046 1.68784L9.65559 0.875H8.82812V1.875ZM13.4453 26.1094L12.463 26.2965L14.4194 26.3355L13.4453 26.1094ZM19.0703 1.875V0.875H18.2758L18.0962 1.6489L19.0703 1.875ZM25.0234 1.875L25.9978 1.65021L25.819 0.875H25.0234V1.875ZM31.6076 26.3421L36.2013 2.06089L34.2362 1.68911L29.6424 25.9704L31.6076 26.3421ZM35.2188 2.875H42.2266V0.875H35.2188V2.875ZM41.2503 1.65842L33.68 35.7834L35.6325 36.2166L43.2028 2.09158L41.2503 1.65842ZM34.6562 35H27.5781V37H34.6562V35ZM28.5498 35.7636L22.9951 12.9354L21.0518 13.4083L26.6065 36.2364L28.5498 35.7636ZM21.0518 12.9354L15.4971 35.7636L17.4404 36.2364L22.9951 13.4083L21.0518 12.9354ZM16.4688 35H9.39062V37H16.4688V35ZM10.3669 35.7834L2.79658 1.65842L0.844047 2.09158L8.41436 36.2166L10.3669 35.7834ZM1.82031 2.875H8.82812V0.875H1.82031V2.875ZM7.84579 2.06216L12.463 26.2965L14.4276 25.9222L9.81046 1.68784L7.84579 2.06216ZM14.4194 26.3355L20.0444 2.1011L18.0962 1.6489L12.4712 25.8833L14.4194 26.3355ZM19.0703 2.875H25.0234V0.875H19.0703V2.875ZM24.049 2.09979L29.6506 26.381L31.5994 25.9315L25.9978 1.65021L24.049 2.09979ZM67.1875 34.4062L66.6607 33.5562L66.658 33.5579L67.1875 34.4062ZM46.8672 28.6172L45.9662 29.051L45.9672 29.0532L46.8672 28.6172ZM45.0156 19.8984L44.0156 19.8984L44.0156 19.9032L45.0156 19.8984ZM46.8203 9.35156L45.9172 8.92205L45.9161 8.92443L46.8203 9.35156ZM51.9531 3.46875L52.4782 4.31979L52.4799 4.31876L51.9531 3.46875ZM67.1172 3.46875L66.5877 4.31712L66.5948 4.32144L67.1172 3.46875ZM72.25 9.35156L71.3448 9.77657L71.348 9.78321L72.25 9.35156ZM54.0859 9.98438L54.9048 10.5583L54.9071 10.555L54.0859 9.98438ZM52.1406 18.0469L51.1406 18.0425V18.0469H52.1406ZM65.0312 27.9375L65.8557 28.5034L65.8579 28.5002L65.0312 27.9375ZM66.9531 19.8281L67.9531 19.8325V19.8281H66.9531ZM73.0781 19.7109C73.0781 22.9526 72.5054 25.7479 71.3916 28.1222L73.2022 28.9716C74.4633 26.2834 75.0781 23.188 75.0781 19.7109H73.0781ZM71.3916 28.1222C70.2802 30.491 68.7029 32.2907 66.6607 33.5562L67.7143 35.2563C70.1096 33.7718 71.9385 31.6652 73.2022 28.9716L71.3916 28.1222ZM66.658 33.5579C64.6295 34.8239 62.2855 35.4688 59.5938 35.4688V37.4688C62.6208 37.4688 65.3392 36.7386 67.717 35.2546L66.658 33.5579ZM59.5938 35.4688C56.9334 35.4688 54.5938 34.8317 52.5459 33.577L51.501 35.2824C53.8906 36.7464 56.5978 37.4688 59.5938 37.4688V35.4688ZM52.5459 33.577C50.5024 32.325 48.909 30.538 47.7671 28.1812L45.9672 29.0532C47.2629 31.7276 49.107 33.8156 51.501 35.2824L52.5459 33.577ZM47.7682 28.1834C46.6239 25.8067 46.0306 23.0512 46.0156 19.8937L44.0156 19.9032C44.0319 23.3082 44.673 26.3652 45.9662 29.051L47.7682 28.1834ZM46.0156 19.8984V18.2109H44.0156V19.8984H46.0156ZM46.0156 18.2109C46.0156 14.9712 46.5955 12.1687 47.7245 9.77869L45.9161 8.92443C44.6389 11.6281 44.0156 14.732 44.0156 18.2109H46.0156ZM47.7234 9.78107C48.8676 7.37518 50.4547 5.56834 52.4782 4.31979L51.428 2.61771C49.0453 4.08791 47.2105 6.20295 45.9172 8.92206L47.7234 9.78107ZM52.4799 4.31876C54.5264 3.05052 56.872 2.40625 59.5469 2.40625V0.40625C56.5343 0.40625 53.8174 1.13698 51.4264 2.61874L52.4799 4.31876ZM59.5469 2.40625C62.2218 2.40625 64.5584 3.05053 66.5877 4.31709L67.6466 2.62041C65.2698 1.13697 62.5594 0.40625 59.5469 0.40625V2.40625ZM66.5948 4.32144C68.6322 5.56973 70.2171 7.37473 71.3448 9.77656L73.1552 8.92656C71.8766 6.20339 70.0397 4.08652 67.6396 2.61606L66.5948 4.32144ZM71.348 9.78321C72.4914 12.1727 73.0781 14.9659 73.0781 18.1875H75.0781C75.0781 14.7216 74.4461 11.6242 73.152 8.91991L71.348 9.78321ZM73.0781 18.1875V19.7109H75.0781V18.1875H73.0781ZM67.9531 18.1641C67.9531 14.4924 67.3003 11.5383 65.8547 9.4404L64.2078 10.5752C65.3247 12.1961 65.9531 14.6795 65.9531 18.1641H67.9531ZM65.8547 9.4404C64.3756 7.29395 62.2306 6.21875 59.5469 6.21875V8.21875C61.6132 8.21875 63.1244 9.00293 64.2078 10.5752L65.8547 9.4404ZM59.5469 6.21875C56.8797 6.21875 54.7439 7.2852 53.2647 9.41372L54.9071 10.555C55.9905 8.99605 57.4953 8.21875 59.5469 8.21875V6.21875ZM53.267 9.41044C51.8183 11.4776 51.1567 14.4023 51.1406 18.0425L53.1406 18.0513C53.1558 14.5977 53.7911 12.1474 54.9048 10.5583L53.267 9.41044ZM51.1406 18.0469V19.7109H53.1406V18.0469H51.1406ZM51.1406 19.7109C51.1406 23.2988 51.7971 26.225 53.2304 28.375L54.8946 27.2656C53.7654 25.5718 53.1406 23.0919 53.1406 19.7109H51.1406ZM53.2304 28.375C54.7063 30.5887 56.8699 31.7031 59.5938 31.7031V29.7031C57.5051 29.7031 55.9812 28.8957 54.8946 27.2656L53.2304 28.375ZM59.5938 31.7031C62.2612 31.7031 64.3917 30.6362 65.8557 28.5034L64.2068 27.3716C63.1395 28.9263 61.6451 29.7031 59.5938 29.7031V31.7031ZM65.8579 28.5002C67.2832 26.4063 67.9371 23.4728 67.9531 19.8325L65.9531 19.8237C65.9379 23.2772 65.3105 25.75 64.2046 27.3748L65.8579 28.5002ZM67.9531 19.8281V18.1641H65.9531V19.8281H67.9531ZM91.8203 23.5078L92.7104 23.0519L92.4317 22.5078H91.8203V23.5078ZM86.2188 23.5078V22.5078H85.2188V23.5078H86.2188ZM86.2188 36V37H87.2188V36H86.2188ZM79.1875 36H78.1875V37H79.1875V36ZM79.1875 1.875V0.875H78.1875V1.875H79.1875ZM102.953 18.0234L102.115 17.4784L102.113 17.4805L102.953 18.0234ZM98.3828 21.7266L97.9722 20.8148L97.0003 21.2525L97.499 22.1945L98.3828 21.7266ZM105.766 35.6719H106.766V35.4235L106.649 35.204L105.766 35.6719ZM105.766 36V37H106.766V36H105.766ZM98.2188 36L97.3287 36.4559L97.6074 37H98.2188V36ZM86.2188 17.8125H85.2188V18.8125H86.2188V17.8125ZM95.9922 16.4766L96.669 17.2128L96.6753 17.2068L95.9922 16.4766ZM96.0625 8.95312L95.3493 9.65419L95.3554 9.66023L96.0625 8.95312ZM86.2188 7.57031V6.57031H85.2188V7.57031H86.2188ZM91.8203 22.5078H86.2188V24.5078H91.8203V22.5078ZM85.2188 23.5078V36H87.2188V23.5078H85.2188ZM86.2188 35H79.1875V37H86.2188V35ZM80.1875 36V1.875H78.1875V36H80.1875ZM79.1875 2.875H91.8672V0.875H79.1875V2.875ZM91.8672 2.875C95.7632 2.875 98.6144 3.7444 100.561 5.34304L101.83 3.79759C99.4012 1.80248 96.0337 0.875 91.8672 0.875V2.875ZM100.561 5.34304C102.479 6.91858 103.477 9.15228 103.477 12.1875H105.477C105.477 8.66022 104.287 5.81579 101.83 3.79759L100.561 5.34304ZM103.477 12.1875C103.477 14.3704 103.001 16.1143 102.115 17.4784L103.792 18.5684C104.936 16.8075 105.477 14.6609 105.477 12.1875H103.477ZM102.113 17.4805C101.239 18.8334 99.8821 19.9546 97.9722 20.8148L98.7935 22.6384C100.977 21.6548 102.668 20.3072 103.793 18.5663L102.113 17.4805ZM97.499 22.1945L104.882 36.1398L106.649 35.204L99.2666 21.2587L97.499 22.1945ZM104.766 35.6719V36H106.766V35.6719H104.766ZM105.766 35H98.2188V37H105.766V35ZM99.1088 35.5441L92.7104 23.0519L90.9303 23.9637L97.3287 36.4559L99.1088 35.5441ZM86.2188 18.8125H91.8906V16.8125H86.2188V18.8125ZM91.8906 18.8125C93.8197 18.8125 95.4602 18.324 96.669 17.2127L95.3154 15.7404C94.5867 16.4104 93.4928 16.8125 91.8906 16.8125V18.8125ZM96.6753 17.2068C97.8844 16.0758 98.4453 14.548 98.4453 12.75H96.4453C96.4453 14.1083 96.0375 15.0648 95.309 15.7463L96.6753 17.2068ZM98.4453 12.75C98.4453 10.9414 97.921 9.39741 96.7696 8.24602L95.3554 9.66023C96.0477 10.3526 96.4453 11.3399 96.4453 12.75H98.4453ZM96.7756 8.25209C95.6093 7.06562 93.9019 6.57031 91.8672 6.57031V8.57031C93.6138 8.57031 94.7032 8.99688 95.3494 9.65416L96.7756 8.25209ZM91.8672 6.57031H86.2188V8.57031H91.8672V6.57031ZM85.2188 7.57031V17.8125H87.2188V7.57031H85.2188ZM120.531 22.3125L121.373 21.7732L120.677 20.6859L119.798 21.632L120.531 22.3125ZM116.875 26.25L116.142 25.5695L115.875 25.8573V26.25H116.875ZM116.875 36V37H117.875V36H116.875ZM109.844 36H108.844V37H109.844V36ZM109.844 1.875V0.875H108.844V1.875H109.844ZM116.875 1.875H117.875V0.875H116.875V1.875ZM116.875 17.3438H115.875V20.4121L117.683 17.933L116.875 17.3438ZM119.969 13.1016L119.178 12.4892L119.169 12.5007L119.161 12.5123L119.969 13.1016ZM128.664 1.875V0.875H128.174L127.873 1.26266L128.664 1.875ZM137.312 1.875L138.094 2.49925L139.392 0.875H137.312V1.875ZM125.195 17.0391L124.414 16.4148L123.961 16.9819L124.36 17.5885L125.195 17.0391ZM137.664 36V37H139.519L138.5 35.4506L137.664 36ZM129.297 36L128.455 36.5393L128.75 37H129.297V36ZM119.798 21.632L116.142 25.5695L117.608 26.9305L121.264 22.993L119.798 21.632ZM115.875 26.25V36H117.875V26.25H115.875ZM116.875 35H109.844V37H116.875V35ZM110.844 36V1.875H108.844V36H110.844ZM109.844 2.875H116.875V0.875H109.844V2.875ZM115.875 1.875V17.3438H117.875V1.875H115.875ZM117.683 17.933L120.777 13.6908L119.161 12.5123L116.067 16.7545L117.683 17.933ZM120.759 13.7139L129.455 2.48734L127.873 1.26266L119.178 12.4892L120.759 13.7139ZM128.664 2.875H137.312V0.875H128.664V2.875ZM136.531 1.25075L124.414 16.4148L125.977 17.6633L138.094 2.49925L136.531 1.25075ZM124.36 17.5885L136.829 36.5494L138.5 35.4506L126.031 16.4896L124.36 17.5885ZM137.664 35H129.297V37H137.664V35ZM130.139 35.4607L121.373 21.7732L119.689 22.8518L128.455 36.5393L130.139 35.4607ZM178.844 26.1562L177.869 26.381L179.826 26.3421L178.844 26.1562ZM183.438 1.875V0.875H182.609L182.455 1.68911L183.438 1.875ZM190.445 1.875L191.422 2.09158L191.691 0.875H190.445V1.875ZM182.875 36V37H183.677L183.851 36.2166L182.875 36ZM175.797 36L174.825 36.2364L175.011 37H175.797V36ZM170.242 13.1719L171.214 12.9354H169.271L170.242 13.1719ZM164.688 36V37H165.473L165.659 36.2364L164.688 36ZM157.609 36L156.633 36.2166L156.807 37H157.609V36ZM150.039 1.875V0.875H148.793L149.063 2.09158L150.039 1.875ZM157.047 1.875L158.029 1.68784L157.874 0.875H157.047V1.875ZM161.664 26.1094L160.682 26.2965L162.638 26.3355L161.664 26.1094ZM167.289 1.875V0.875H166.495L166.315 1.6489L167.289 1.875ZM173.242 1.875L174.217 1.65021L174.038 0.875H173.242V1.875ZM179.826 26.3421L184.42 2.06089L182.455 1.68911L177.861 25.9704L179.826 26.3421ZM183.438 2.875H190.445V0.875H183.438V2.875ZM189.469 1.65842L181.899 35.7834L183.851 36.2166L191.422 2.09158L189.469 1.65842ZM182.875 35H175.797V37H182.875V35ZM176.769 35.7636L171.214 12.9354L169.271 13.4083L174.825 36.2364L176.769 35.7636ZM169.271 12.9354L163.716 35.7636L165.659 36.2364L171.214 13.4083L169.271 12.9354ZM164.688 35H157.609V37H164.688V35ZM158.586 35.7834L151.015 1.65842L149.063 2.09158L156.633 36.2166L158.586 35.7834ZM150.039 2.875H157.047V0.875H150.039V2.875ZM156.065 2.06216L160.682 26.2965L162.646 25.9222L158.029 1.68784L156.065 2.06216ZM162.638 26.3355L168.263 2.1011L166.315 1.6489L160.69 25.8833L162.638 26.3355ZM167.289 2.875H173.242V0.875H167.289V2.875ZM172.268 2.09979L177.869 26.381L179.818 25.9315L174.217 1.65021L172.268 2.09979ZM201.742 36V37H202.742V36H201.742ZM194.711 36H193.711V37H194.711V36ZM194.711 1.875V0.875H193.711V1.875H194.711ZM201.742 1.875H202.742V0.875H201.742V1.875ZM201.742 35H194.711V37H201.742V35ZM195.711 36V1.875H193.711V36H195.711ZM194.711 2.875H201.742V0.875H194.711V2.875ZM200.742 1.875V36H202.742V1.875H200.742ZM233.266 7.57031V8.57031H234.266V7.57031H233.266ZM222.812 7.57031V6.57031H221.812V7.57031H222.812ZM222.812 36V37H223.812V36H222.812ZM215.781 36H214.781V37H215.781V36ZM215.781 7.57031H216.781V6.57031H215.781V7.57031ZM205.469 7.57031H204.469V8.57031H205.469V7.57031ZM205.469 1.875V0.875H204.469V1.875H205.469ZM233.266 1.875H234.266V0.875H233.266V1.875ZM233.266 6.57031H222.812V8.57031H233.266V6.57031ZM221.812 7.57031V36H223.812V7.57031H221.812ZM222.812 35H215.781V37H222.812V35ZM216.781 36V7.57031H214.781V36H216.781ZM215.781 6.57031H205.469V8.57031H215.781V6.57031ZM206.469 7.57031V1.875H204.469V7.57031H206.469ZM205.469 2.875H233.266V0.875H205.469V2.875ZM232.266 1.875V7.57031H234.266V1.875H232.266ZM265.07 36V37H266.07V36H265.07ZM258.039 36H257.039V37H258.039V36ZM258.039 21.375H259.039V20.375H258.039V21.375ZM244.328 21.375V20.375H243.328V21.375H244.328ZM244.328 36V37H245.328V36H244.328ZM237.297 36H236.297V37H237.297V36ZM237.297 1.875V0.875H236.297V1.875H237.297ZM244.328 1.875H245.328V0.875H244.328V1.875ZM244.328 15.7031H243.328V16.7031H244.328V15.7031ZM258.039 15.7031V16.7031H259.039V15.7031H258.039ZM258.039 1.875V0.875H257.039V1.875H258.039ZM265.07 1.875H266.07V0.875H265.07V1.875ZM265.07 35H258.039V37H265.07V35ZM259.039 36V21.375H257.039V36H259.039ZM258.039 20.375H244.328V22.375H258.039V20.375ZM243.328 21.375V36H245.328V21.375H243.328ZM244.328 35H237.297V37H244.328V35ZM238.297 36V1.875H236.297V36H238.297ZM237.297 2.875H244.328V0.875H237.297V2.875ZM243.328 1.875V15.7031H245.328V1.875H243.328ZM244.328 16.7031H258.039V14.7031H244.328V16.7031ZM259.039 15.7031V1.875H257.039V15.7031H259.039ZM258.039 2.875H265.07V0.875H258.039V2.875ZM264.07 1.875V36H266.07V1.875H264.07ZM292.375 1.875L293.318 1.54115L293.082 0.875H292.375V1.875ZM301.141 26.625L300.198 26.9588L301.143 29.6275L302.084 26.9573L301.141 26.625ZM309.859 1.875V0.875H309.151L308.916 1.54274L309.859 1.875ZM319.094 1.875H320.094V0.875H319.094V1.875ZM319.094 36V37H320.094V36H319.094ZM312.039 36H311.039V37H312.039V36ZM312.039 26.6719L311.04 26.6282L311.039 26.6501V26.6719H312.039ZM312.742 10.5703L313.741 10.6139L311.802 10.2298L312.742 10.5703ZM303.531 36V37H304.233L304.471 36.3406L303.531 36ZM298.703 36L297.763 36.3401L298.001 37H298.703V36ZM289.516 10.5938L290.456 10.2537L288.517 10.6374L289.516 10.5938ZM290.219 26.6719H291.219V26.65L291.218 26.6282L290.219 26.6719ZM290.219 36V37H291.219V36H290.219ZM283.188 36H282.188V37H283.188V36ZM283.188 1.875V0.875H282.188V1.875H283.188ZM291.432 2.20885L300.198 26.9588L302.083 26.2912L293.318 1.54115L291.432 2.20885ZM302.084 26.9573L310.803 2.20726L308.916 1.54274L300.197 26.2927L302.084 26.9573ZM309.859 2.875H319.094V0.875H309.859V2.875ZM318.094 1.875V36H320.094V1.875H318.094ZM319.094 35H312.039V37H319.094V35ZM313.039 36V26.6719H311.039V36H313.039ZM313.038 26.7155L313.741 10.6139L311.743 10.5267L311.04 26.6282L313.038 26.7155ZM311.802 10.2298L302.591 35.6594L304.471 36.3406L313.682 10.9109L311.802 10.2298ZM303.531 35H298.703V37H303.531V35ZM299.644 35.6599L290.456 10.2537L288.575 10.9338L297.763 36.3401L299.644 35.6599ZM288.517 10.6374L289.22 26.7156L291.218 26.6282L290.515 10.5501L288.517 10.6374ZM289.219 26.6719V36H291.219V26.6719H289.219ZM290.219 35H283.188V37H290.219V35ZM284.188 36V1.875H282.188V36H284.188ZM283.188 2.875H292.375V0.875H283.188V2.875ZM345.766 21.2109V22.2109H346.766V21.2109H345.766ZM332.266 21.2109V20.2109H331.266V21.2109H332.266ZM332.266 30.3516H331.266V31.3516H332.266V30.3516ZM348.109 30.3516H349.109V29.3516H348.109V30.3516ZM348.109 36V37H349.109V36H348.109ZM325.234 36H324.234V37H325.234V36ZM325.234 1.875V0.875H324.234V1.875H325.234ZM348.062 1.875H349.062V0.875H348.062V1.875ZM348.062 7.57031V8.57031H349.062V7.57031H348.062ZM332.266 7.57031V6.57031H331.266V7.57031H332.266ZM332.266 15.7031H331.266V16.7031H332.266V15.7031ZM345.766 15.7031H346.766V14.7031H345.766V15.7031ZM345.766 20.2109H332.266V22.2109H345.766V20.2109ZM331.266 21.2109V30.3516H333.266V21.2109H331.266ZM332.266 31.3516H348.109V29.3516H332.266V31.3516ZM347.109 30.3516V36H349.109V30.3516H347.109ZM348.109 35H325.234V37H348.109V35ZM326.234 36V1.875H324.234V36H326.234ZM325.234 2.875H348.062V0.875H325.234V2.875ZM347.062 1.875V7.57031H349.062V1.875H347.062ZM348.062 6.57031H332.266V8.57031H348.062V6.57031ZM331.266 7.57031V15.7031H333.266V7.57031H331.266ZM332.266 16.7031H345.766V14.7031H332.266V16.7031ZM344.766 15.7031V21.2109H346.766V15.7031H344.766Z" fill="black" fill-opacity="0.2"/>
</svg>
