<svg width="348" height="36" viewBox="0 0 348 36" fill="none" xmlns="http://www.w3.org/2000/svg">
<path d="M29.625 25.1562L34.2188 0.875H41.2266L33.6562 35H26.5781L21.0234 12.1719L15.4688 35H8.39062L0.820312 0.875H7.82812L12.4453 25.1094L18.0703 0.875H24.0234L29.625 25.1562ZM73.0781 18.7109C73.0781 22.0703 72.4844 25.0156 71.2969 27.5469C70.1094 30.0781 68.4062 32.0312 66.1875 33.4062C63.9844 34.7812 61.4531 35.4688 58.5938 35.4688C55.7656 35.4688 53.2422 34.7891 51.0234 33.4297C48.8047 32.0703 47.0859 30.1328 45.8672 27.6172C44.6484 25.0859 44.0312 22.1797 44.0156 18.8984V17.2109C44.0156 13.8516 44.6172 10.8984 45.8203 8.35156C47.0391 5.78906 48.75 3.82812 50.9531 2.46875C53.1719 1.09375 55.7031 0.40625 58.5469 0.40625C61.3906 0.40625 63.9141 1.09375 66.1172 2.46875C68.3359 3.82812 70.0469 5.78906 71.25 8.35156C72.4688 10.8984 73.0781 13.8438 73.0781 17.1875V18.7109ZM65.9531 17.1641C65.9531 13.5859 65.3125 10.8672 64.0312 9.00781C62.75 7.14844 60.9219 6.21875 58.5469 6.21875C56.1875 6.21875 54.3672 7.14062 53.0859 8.98438C51.8047 10.8125 51.1562 13.5 51.1406 17.0469V18.7109C51.1406 22.1953 51.7812 24.8984 53.0625 26.8203C54.3438 28.7422 56.1875 29.7031 58.5938 29.7031C60.9531 29.7031 62.7656 28.7812 64.0312 26.9375C65.2969 25.0781 65.9375 22.375 65.9531 18.8281V17.1641ZM90.8203 22.5078H85.2188V35H78.1875V0.875H90.8672C94.8984 0.875 98.0078 1.77344 100.195 3.57031C102.383 5.36719 103.477 7.90625 103.477 11.1875C103.477 13.5156 102.969 15.4609 101.953 17.0234C100.953 18.5703 99.4297 19.8047 97.3828 20.7266L104.766 34.6719V35H97.2188L90.8203 22.5078ZM85.2188 16.8125H90.8906C92.6562 16.8125 94.0234 16.3672 94.9922 15.4766C95.9609 14.5703 96.4453 13.3281 96.4453 11.75C96.4453 10.1406 95.9844 8.875 95.0625 7.95312C94.1562 7.03125 92.7578 6.57031 90.8672 6.57031H85.2188V16.8125ZM119.531 21.3125L115.875 25.25V35H108.844V0.875H115.875V16.3438L118.969 12.1016L127.664 0.875H136.312L124.195 16.0391L136.664 35H128.297L119.531 21.3125ZM177.844 25.1562L182.438 0.875H189.445L181.875 35H174.797L169.242 12.1719L163.688 35H156.609L149.039 0.875H156.047L160.664 25.1094L166.289 0.875H172.242L177.844 25.1562ZM200.742 35H193.711V0.875H200.742V35ZM232.266 6.57031H221.812V35H214.781V6.57031H204.469V0.875H232.266V6.57031ZM264.07 35H257.039V20.375H243.328V35H236.297V0.875H243.328V14.7031H257.039V0.875H264.07V35ZM291.375 0.875L300.141 25.625L308.859 0.875H318.094V35H311.039V25.6719L311.742 9.57031L302.531 35H297.703L288.516 9.59375L289.219 25.6719V35H282.188V0.875H291.375ZM344.766 20.2109H331.266V29.3516H347.109V35H324.234V0.875H347.062V6.57031H331.266V14.7031H344.766V20.2109Z" fill="#111111"/>
</svg>
